<svg xmlns="http://www.w3.org/2000/svg" xmlns:ev="http://www.w3.org/2001/xml-events" xmlns:xlink="http://www.w3.org/1999/xlink" width="1057.622" height="354.174" class="st13" color-interpolation-filters="sRGB" viewBox="0 0 793.215 265.63" xml:space="preserve"><style type="text/css">.st1{fill:#ededed;stroke:#a8d08d;stroke-dasharray:6,6;stroke-width:2}.st2,.st3{stroke:#96f;stroke-width:2.75}.st3{stroke:#f90}.st4,.st5{fill:#000;stroke:#c7c8c8;stroke-width:.25}.st5{fill:#ededed;stroke:none}.st6{fill:#000;font-family:Montserrat;font-size:1.5em}.st7{fill:none;stroke-width:2}.st7,.st8,.st9{stroke:none}.st8{fill:#c9c9c9;stroke-width:.25}.st9{fill:#a8d08d;stroke-width:2}.st10{fill:#000;stroke:#ededed;stroke-width:4.5}.st11,.st12{fill:#96f;stroke:none;stroke-width:2}.st12{fill:#f90}.st13{fill:none;fill-rule:evenodd;font-size:12px;overflow:visible;stroke-linecap:square;stroke-miterlimit:3}</style><g><title>Zeichenblatt-1</title><g id="group37-1" transform="translate(272.709,-180.347)"><title>Tabelle.37</title></g><g id="shape74-2" transform="translate(30.3465,-79.3782)"><title>Rechteck.74</title><path d="M0 265.63 L732.52 265.63 L732.52 109.72 L0 109.72 L0 265.63 Z" class="st1"/></g><g id="shape157-4" transform="translate(159.323,-178.591)"><title>Dynamischer Verbinder.157</title><path d="M0 265.63 L88.97 265.63 A28.3465 28.3465 0 0 1 117.32 293.98 L117.32 298.94 A28.3465 28.3465 -180 0 0 145.66 327.28 L538 327.28" class="st2"/></g><g id="shape166-7" transform="translate(159.323,-178.591)"><title>Dynamischer Verbinder</title><path d="M0 265.63 L305.56 265.63 A28.3465 28.3465 0 0 1 333.91 293.98 L333.91 298.94 A28.3465 28.3465 -180 0 0 362.25 327.28 L538 327.28" class="st3"/></g><g id="group75-10" transform="translate(272.709,-169.095)"><title>Tabelle.75</title></g><g id="shape76-11" transform="translate(159.323,-177.173)"><title>Rechteck.76</title><rect width="538" height="2.835" x="0" y="262.795" class="st4"/></g><g id="shape80-13" transform="translate(53.0236,-169.095)"><title>Rechteck.80</title><desc>Master</desc><rect width="99.213" height="18.992" x="0" y="246.638" class="st5"/><text x="19.28" y="261.53" class="st6">Master</text></g><g id="shape81-16" transform="translate(54.4409,-155.205)"><title>Tabelle.81</title><rect width="676.898" height="46.772" x="0" y="218.858" class="st7"/></g><g id="shape82-18" transform="translate(30.3465,-206.937)"><title>Tabelle.82</title><desc>YourLocalClone</desc><rect width="732.522" height="28.346" x="0" y="237.284" class="st8"/><text x="296.23" y="256.86" class="st6">YourLocalClone</text></g><g id="shape83-21" transform="translate(311.811,-115.52)"><title>Rechteck.83</title><rect width="385.512" height="2.835" x="0" y="262.795" class="st4"/></g><g id="shape87-23" transform="translate(56.6929,-108.567)"><title>Rechteck.87</title><desc>Feature/YourFeature</desc><rect width="206.346" height="18.992" x="0" y="246.638" class="st5"/><text x="11.18" y="261.53" class="st6">Feature/YourFeature</text></g><g id="shape88-26" transform="translate(54.4409,-93.5514)"><title>Tabelle.88</title><rect width="676.898" height="46.772" x="0" y="218.858" class="st7"/></g><g id="shape92-28" transform="translate(30.3465,-30.3465)"><title>Rechteck.92</title><desc>Your local Clone</desc><rect width="170.079" height="28.346" x="0" y="237.284" class="st9"/><text x="12.52" y="256.86" class="st6">Your local Clone</text></g><g id="shape149-31" transform="translate(432.384,-170.079)"><title>Kreis.149</title><path d="M0 256.13 A9.49606 9.49606 0 1 1 18.99 256.13 A9.49606 9.49606 0 0 1 0 256.13 Z" class="st10"/></g><g id="shape150-33" transform="translate(363.016,-170.079)"><title>Kreis.150</title><path d="M0 256.13 A9.49606 9.49606 0 1 1 18.99 256.13 A9.49606 9.49606 0 0 1 0 256.13 Z" class="st10"/></g><g id="shape151-35" transform="translate(313.978,-170.079)"><title>Kreis.151</title><path d="M0 256.13 A9.49606 9.49606 0 1 1 18.99 256.13 A9.49606 9.49606 0 0 1 0 256.13 Z" class="st10"/></g><g id="shape84-37" transform="translate(536.29,-107.441)"><title>Kreis.84</title><path d="M0 256.13 A9.49606 9.49606 0 1 1 18.99 256.13 A9.49606 9.49606 0 0 1 0 256.13 Z" class="st10"/></g><g id="shape85-39" transform="translate(585.637,-107.441)"><title>Kreis.85</title><path d="M0 256.13 A9.49606 9.49606 0 1 1 18.99 256.13 A9.49606 9.49606 0 0 1 0 256.13 Z" class="st10"/></g><g id="shape86-41" transform="translate(632.976,-107.441)"><title>Kreis.86</title><path d="M0 256.13 A9.49606 9.49606 0 1 1 18.99 256.13 A9.49606 9.49606 0 0 1 0 256.13 Z" class="st10"/></g><g id="shape77-43" transform="translate(172.042,-169.095)"><title>Kreis.77</title><path d="M0 256.13 A9.49606 9.49606 0 1 1 18.99 256.13 A9.49606 9.49606 0 0 1 0 256.13 Z" class="st10"/></g><g id="shape167-45" transform="translate(220.685,-30.3465)"><title>Rechteck.167</title><desc>Before Rebase</desc><rect width="170.079" height="28.346" x="0" y="237.284" class="st11"/><text x="20.81" y="256.86" class="st6">Before Rebase</text></g><g id="shape168-48" transform="translate(411.024,-30.3465)"><title>Rechteck.168</title><desc>After Rebase</desc><rect width="170.079" height="28.346" x="0" y="237.284" class="st12"/><text x="27.77" y="256.86" class="st6">After Rebase</text></g></g></svg>