<svg xmlns="http://www.w3.org/2000/svg" xmlns:ev="http://www.w3.org/2001/xml-events" xmlns:xlink="http://www.w3.org/1999/xlink" width="1114.061" height="583.276" class="st20" color-interpolation-filters="sRGB" viewBox="0 0 835.549 437.457" xml:space="preserve"><style type="text/css">.st1,.st2{fill:none;stroke:none;stroke-width:2}.st2{fill:#ededed;stroke:#90aadb;stroke-dasharray:6,6}.st3,.st4{fill:#000;stroke:#c7c8c8;stroke-width:.25}.st4{fill:#ededed;stroke:none}.st5{fill:#000;font-family:Montserrat;font-size:1.5em}.st6{fill:#c9c9c9;stroke:none;stroke-width:.25}.st7{fill:#90aadb}.st7,.st8,.st9{stroke:none;stroke-width:2}.st8{fill:#ffc000}.st9{fill:#ed7d31}.st10{stroke:#000;stroke-width:2.75}.st11,.st12{fill:#000;stroke:none;stroke-width:.25}.st12{stroke:#ededed;stroke-width:4.5}.st13,.st14{stroke-width:2}.st13{fill:none;stroke:#ed7d31;stroke-dasharray:6,6}.st14{fill:#a8d08d;stroke:none}.st15,.st16{stroke-dasharray:6,6;stroke-width:2}.st15{fill:#ededed;stroke:#ffc000}.st16{fill:none}.st16,.st17,.st18{stroke:#a8d08d}.st17{marker-end:url(#mrkr13-89);stroke-linecap:round;stroke-linejoin:round;stroke-width:2}.st18{fill:#a8d08d;fill-opacity:1;stroke-opacity:1;stroke-width:.44247787610619}.st19{stroke:#000;stroke-width:2.5}.st20{fill:none;fill-rule:evenodd;font-size:12px;overflow:visible;stroke-linecap:square;stroke-miterlimit:3}</style><defs id="Markers"><g id="lend13"><path d="M 3 1 L 0 0 L 3 -1 L 3 1" style="stroke:none"/></g><marker id="mrkr13-89" class="st18" markerUnits="strokeWidth" orient="auto" overflow="visible" refX="-6.78"><use transform="scale(-2.26,-2.26)" xlink:href="#lend13"/></marker></defs><g><title>Zeichenblatt-1</title><g id="group37-1" transform="translate(276.709,-186.481)"><title>Tabelle.37</title></g><g id="shape52-2" transform="translate(58.4409,-172.591)"><title>Tabelle.52</title><rect width="676.898" height="46.772" x="0" y="390.685" class="st1"/></g><g id="shape66-4" transform="translate(58.4409,-110.937)"><title>Tabelle.66</title><rect width="676.898" height="46.772" x="0" y="390.685" class="st1"/></g><g id="shape74-6" transform="translate(32.5892,-75.9368)"><title>Rechteck.74</title><path d="M0 437.46 L732.52 437.46 L732.52 304.11 L0 304.11 L0 437.46 Z" class="st2"/></g><g id="group75-8" transform="translate(274.709,-143.095)"><title>Tabelle.75</title></g><g id="shape76-9" transform="translate(150.819,-151.173)"><title>Rechteck.76</title><rect width="548.504" height="2.835" x="0" y="434.623" class="st3"/></g><g id="shape80-11" transform="translate(44.5197,-143.094)"><title>Rechteck.80</title><desc>Master</desc><rect width="82.797" height="18.992" x="0" y="418.465" class="st4"/><text x="11.07" y="433.36" class="st5">Master</text></g><g id="shape81-14" transform="translate(56.4409,-129.205)"><title>Tabelle.81</title><rect width="676.898" height="46.772" x="0" y="390.685" class="st1"/></g><g id="shape82-16" transform="translate(32.3465,-180.937)"><title>Tabelle.82</title><desc>YourUsername/SpongePowered</desc><rect width="732.522" height="28.346" x="0" y="409.111" class="st6"/><text x="222.29" y="428.68" class="st5">YourUsername/SpongePowered</text></g><g id="shape88-19" transform="translate(56.4409,-67.5512)"><title>Tabelle.88</title><rect width="676.898" height="46.772" x="0" y="390.685" class="st1"/></g><g id="shape91-21" transform="translate(30.3465,-30.3465)"><title>Rechteck.91</title><desc>Your Fork</desc><rect width="113.386" height="28.346" x="0" y="409.111" class="st7"/><text x="13.89" y="428.68" class="st5">Your Fork</text></g><g id="shape92-24" transform="translate(30.3465,-223.457)"><title>Rechteck.92</title><desc>Our Repository</desc><rect width="170.079" height="28.346" x="0" y="409.111" class="st8"/><text x="18.06" y="428.68" class="st5">Our Repository</text></g><g id="shape116-27" transform="translate(43.811,-101.559)"><title>Rechteck.116</title><desc>Feature/YourFeature</desc><rect width="205.512" height="18.992" x="0" y="418.465" class="st4"/><text x="10.76" y="433.36" class="st5">Feature/YourFeature</text></g><g id="shape124-30" transform="translate(154.362,-30.3465)"><title>Rechteck.124</title><desc>Your Branch</desc><rect width="131.102" height="28.346" x="0" y="409.111" class="st9"/><text x="10.21" y="428.68" class="st5">Your Branch</text></g><g id="shape119-33" transform="translate(150.819,-152.591)"><title>Dynamischer Verbinder.119</title><path d="M0 437.46 L85.53 437.46 A20.7678 20.7678 0 0 1 106.3 458.22 L106.3 458.22 A20.7678 20.7678 -180 0 0 127.07 478.99 L191.34 478.99" class="st10"/></g><g id="shape131-36" transform="translate(342.157,-109.638)"><title>Rechteck.131</title><rect width="358.583" height="2.835" x="0" y="434.623" class="st11"/></g><g id="shape122-38" transform="translate(450.219,-101.559)"><title>Kreis.122</title><path d="M0 427.96 A9.49606 9.49606 0 1 1 18.99 427.96 A9.49606 9.49606 0 0 1 0 427.96 Z" class="st12"/></g><g id="shape121-40" transform="translate(402.879,-101.559)"><title>Kreis.121</title><path d="M0 427.96 A9.49606 9.49606 0 1 1 18.99 427.96 A9.49606 9.49606 0 0 1 0 427.96 Z" class="st12"/></g><g id="shape120-42" transform="translate(353.533,-101.559)"><title>Kreis.120</title><path d="M0 427.96 A9.49606 9.49606 0 1 1 18.99 427.96 A9.49606 9.49606 0 0 1 0 427.96 Z" class="st12"/></g><g id="shape77-44" transform="translate(174.042,-143.094)"><title>Kreis.77</title><path d="M0 427.96 A9.49606 9.49606 0 1 1 18.99 427.96 A9.49606 9.49606 0 0 1 0 427.96 Z" class="st12"/></g><g id="shape133-46" transform="translate(43.811,-90.11)"><title>Rechteck.133</title><path d="M0 437.46 L709.37 437.46 L709.37 395.95 L0 395.95 L0 437.46 Z" class="st13"/></g><g id="shape136-48" transform="translate(212.598,-223.457)"><title>Rechteck.136</title><desc>Pull Request</desc><rect width="155.663" height="28.346" x="0" y="409.111" class="st14"/><text x="21.27" y="428.68" class="st5">Pull Request</text></g><g id="shape137-51" transform="translate(32.5892,-265.976)"><title>Rechteck.137</title><path d="M0 437.46 L732.52 437.46 L732.52 296.32 L0 296.32 L0 437.46 Z" class="st15"/></g><g id="shape154-53" transform="translate(342.157,-299.677)"><title>Rechteck.154</title><rect width="170.079" height="2.835" x="0" y="434.623" class="st11"/></g><g id="group138-55" transform="translate(274.709,-340.922)"><title>Tabelle.138</title></g><g id="shape139-56" transform="translate(150.819,-349)"><title>Rechteck.139</title><rect width="548.504" height="2.835" x="0" y="434.623" class="st3"/></g><g id="shape142-58" transform="translate(44.5197,-340.922)"><title>Rechteck.142</title><desc>Master</desc><rect width="82.797" height="18.992" x="0" y="418.465" class="st4"/><text x="11.07" y="433.36" class="st5">Master</text></g><g id="shape143-61" transform="translate(56.4409,-327.032)"><title>Tabelle.143</title><rect width="676.898" height="46.772" x="0" y="390.685" class="st1"/></g><g id="shape144-63" transform="translate(32.3465,-378.764)"><title>Tabelle.144</title><desc>SpongePowered</desc><rect width="732.522" height="28.346" x="0" y="409.111" class="st6"/><text x="291.91" y="428.68" class="st5">SpongePowered</text></g><g id="shape147-66" transform="translate(56.4409,-265.378)"><title>Tabelle.147</title><rect width="676.898" height="46.772" x="0" y="390.685" class="st1"/></g><g id="shape152-68" transform="translate(43.811,-291.598)"><title>Rechteck.152</title><desc>Feature/YourFeature</desc><rect width="205.512" height="18.992" x="0" y="418.465" class="st4"/><text x="10.76" y="433.36" class="st5">Feature/YourFeature</text></g><g id="shape153-71" transform="translate(150.819,-350.418)"><title>Dynamischer Verbinder.153</title><path d="M0 437.46 L81.64 437.46 A24.6616 24.6616 0 0 1 106.3 462.12 L106.3 462.12 A24.6616 24.6616 -180 0 0 130.96 486.78 L191.34 486.78" class="st10"/></g><g id="shape155-74" transform="translate(450.219,-291.598)"><title>Kreis.155</title><path d="M0 427.96 A9.49606 9.49606 0 1 1 18.99 427.96 A9.49606 9.49606 0 0 1 0 427.96 Z" class="st12"/></g><g id="shape156-76" transform="translate(402.879,-291.598)"><title>Kreis.156</title><path d="M0 427.96 A9.49606 9.49606 0 1 1 18.99 427.96 A9.49606 9.49606 0 0 1 0 427.96 Z" class="st12"/></g><g id="shape157-78" transform="translate(353.533,-291.598)"><title>Kreis.157</title><path d="M0 427.96 A9.49606 9.49606 0 1 1 18.99 427.96 A9.49606 9.49606 0 0 1 0 427.96 Z" class="st12"/></g><g id="shape158-80" transform="translate(174.042,-340.922)"><title>Kreis.158</title><path d="M0 427.96 A9.49606 9.49606 0 1 1 18.99 427.96 A9.49606 9.49606 0 0 1 0 427.96 Z" class="st12"/></g><g id="shape159-82" transform="translate(43.811,-280.15)"><title>Rechteck.159</title><path d="M0 437.46 L709.37 437.46 L709.37 395.95 L0 395.95 L0 437.46 Z" class="st16"/></g><g id="shape160-84" transform="translate(746.094,-110.863)"><title>Dynamischer Verbinder</title><path d="M7.09 437.46 L41.11 437.46 L41.11 247.42 L20.65 247.42" class="st17"/></g><g id="shape162-90" transform="translate(699.323,-350.418)"><title>Dynamischer Verbinder.162</title><path d="M0 437.46 L-34.87 437.46 A24.6616 24.6616 -180 0 0 -59.53 462.12 L-59.53 462.12 A24.6616 24.6616 0 0 1 -84.19 486.78 L-187.09 486.78" class="st19"/></g></g></svg>