<svg xmlns="http://www.w3.org/2000/svg" xmlns:ev="http://www.w3.org/2001/xml-events" xmlns:xlink="http://www.w3.org/1999/xlink" width="1057.622" height="372.106" class="st18" color-interpolation-filters="sRGB" viewBox="0 0 793.215 279.079" xml:space="preserve"><style type="text/css">.st1{fill:#ededed;stroke:#a8d08d;stroke-dasharray:6,6;stroke-width:2}.st2,.st3{fill:#000;stroke:#c7c8c8;stroke-width:.25}.st3{fill:#ededed;stroke:none}.st4{fill:#000;font-family:Montserrat;font-size:1.5em}.st5{fill:none;stroke:none;stroke-width:2}.st6,.st7,.st8{fill:#c9c9c9;stroke:none;stroke-width:.25}.st7,.st8{fill:#a8d08d;stroke-width:2}.st8{fill:#ed7d31}.st9{stroke:#000;stroke-width:2.75}.st10{fill:#000;stroke:#ededed;stroke-width:4.5}.st11{visibility:visible}.st12{filter:url(#filter_2);stroke:#5b9bd5;stroke-opacity:.22}.st12,.st13,.st14{fill:none;stroke-dasharray:6,6}.st13{stroke:#ed7d31;stroke-width:2}.st14{stroke:#96f}.st14,.st15,.st16{stroke-width:2}.st15{fill:#96f;stroke:none}.st16{marker-end:url(#mrkr13-68);stroke:#96f;stroke-linecap:round;stroke-linejoin:round}.st17{fill:#96f;fill-opacity:1;stroke:#96f;stroke-opacity:1;stroke-width:.44247787610619}.st18{fill:none;fill-rule:evenodd;font-size:12px;overflow:visible;stroke-linecap:square;stroke-miterlimit:3}</style><defs id="Markers"><g id="lend13"><path d="M 3 1 L 0 0 L 3 -1 L 3 1" style="stroke:none"/></g><marker id="mrkr13-68" class="st17" markerUnits="strokeWidth" orient="auto" overflow="visible" refX="-6.78"><use transform="scale(-2.26,-2.26)" xlink:href="#lend13"/></marker></defs><defs id="Filters"><filter id="filter_2"><feGaussianBlur stdDeviation="2"/></filter></defs><g><title>Zeichenblatt-1</title><g id="shape152-1" transform="translate(30.3465,-79.9528)"><title>Rechteck.152</title><path d="M0 279.08 L732.52 279.08 L732.52 110.3 L0 110.3 L0 279.08 Z" class="st1"/></g><g id="group153-3" transform="translate(272.466,-182.544)"><title>Tabelle.153</title></g><g id="shape154-4" transform="translate(148.576,-190.622)"><title>Rechteck.154</title><rect width="548.504" height="2.835" x="0" y="276.244" class="st2"/></g><g id="shape155-6" transform="translate(42.277,-182.544)"><title>Rechteck.155</title><desc>Master</desc><rect width="82.797" height="18.992" x="0" y="260.087" class="st3"/><text x="11.07" y="274.98" class="st4">Master</text></g><g id="shape156-9" transform="translate(54.1982,-168.654)"><title>Tabelle.156</title><rect width="676.898" height="46.772" x="0" y="232.307" class="st5"/></g><g id="shape157-11" transform="translate(30.1037,-220.386)"><title>Tabelle.157</title><desc>YourLocalClone</desc><rect width="732.522" height="28.346" x="0" y="250.732" class="st6"/><text x="296.23" y="270.31" class="st4">YourLocalClone</text></g><g id="shape160-14" transform="translate(54.1982,-107)"><title>Tabelle.160</title><rect width="676.898" height="46.772" x="0" y="232.307" class="st5"/></g><g id="shape162-16" transform="translate(30.3465,-30.3465)"><title>Rechteck.162</title><desc>Your local Clone</desc><rect width="170.079" height="28.346" x="0" y="250.732" class="st7"/><text x="12.52" y="270.31" class="st4">Your local Clone</text></g><g id="shape166-19" transform="translate(41.5683,-132.819)"><title>Rechteck.166</title><desc>Feature/YourFeature</desc><rect width="205.512" height="18.992" x="0" y="260.087" class="st3"/><text x="10.76" y="274.98" class="st4">Feature/YourFeature</text></g><g id="shape167-22" transform="translate(222.986,-30.3465)"><title>Rechteck.167</title><desc>Before Squashing</desc><rect width="184.252" height="28.346" x="0" y="250.732" class="st8"/><text x="13.19" y="270.31" class="st4">Before Squashing</text></g><g id="shape168-25" transform="translate(148.576,-192.04)"><title>Dynamischer Verbinder.168</title><path d="M0 279.08 L81.44 279.08 A24.8623 24.8623 0 0 1 106.3 303.94 L106.3 303.94 A24.8623 24.8623 -180 0 0 131.16 328.8 L191.34 328.8" class="st9"/></g><g id="shape169-28" transform="translate(339.915,-140.898)"><title>Rechteck.169</title><rect width="354.573" height="2.835" x="0" y="276.244" class="st2"/></g><g id="shape170-30" transform="translate(560.608,-132.819)"><title>Kreis.170</title><path d="M0 269.58 A9.49606 9.49606 0 1 1 18.99 269.58 A9.49606 9.49606 0 0 1 0 269.58 Z" class="st10"/></g><g id="shape171-32" transform="translate(400.636,-132.819)"><title>Kreis.171</title><path d="M0 269.58 A9.49606 9.49606 0 1 1 18.99 269.58 A9.49606 9.49606 0 0 1 0 269.58 Z" class="st10"/></g><g id="shape172-34" transform="translate(351.29,-132.819)"><title>Kreis.172</title><path d="M0 269.58 A9.49606 9.49606 0 1 1 18.99 269.58 A9.49606 9.49606 0 0 1 0 269.58 Z" class="st10"/></g><g id="shape173-36" transform="translate(345.584,-125.732)"><title>Quadrat.173</title><g id="shadow173-37" class="st11"><path d="M0 279.08 L31.18 279.08 L31.18 247.9 L0 247.9 L0 279.08 Z" class="st12" transform="matrix(1,0,0,1,0.345598,1.97279)"/></g><path d="M0 279.08 L31.18 279.08 L31.18 247.9 L0 247.9 L0 279.08 Z" class="st13"/></g><g id="shape174-41" transform="translate(393.773,-125.732)"><title>Quadrat.174</title><g id="shadow174-42" class="st11"><path d="M0 279.08 L31.18 279.08 L31.18 247.9 L0 247.9 L0 279.08 Z" class="st12" transform="matrix(1,0,0,1,0.345598,1.97279)"/></g><path d="M0 279.08 L31.18 279.08 L31.18 247.9 L0 247.9 L0 279.08 Z" class="st13"/></g><g id="shape175-46" transform="translate(554.513,-126.724)"><title>Quadrat.175</title><g id="shadow175-47" class="st11"><path d="M0 279.08 L31.18 279.08 L31.18 247.9 L0 247.9 L0 279.08 Z" class="st12" transform="matrix(1,0,0,1,0.345598,1.97279)"/></g><path d="M0 279.08 L31.18 279.08 L31.18 247.9 L0 247.9 L0 279.08 Z" class="st14"/></g><g id="shape176-51" transform="translate(171.799,-182.544)"><title>Kreis.176</title><path d="M0 269.58 A9.49606 9.49606 0 1 1 18.99 269.58 A9.49606 9.49606 0 0 1 0 269.58 Z" class="st10"/></g><g id="shape177-53" transform="translate(429.798,-30.3465)"><title>Rechteck.177</title><desc>After Squashing</desc><rect width="184.252" height="28.346" x="0" y="250.732" class="st15"/><text x="20.15" y="270.31" class="st4">After Squashing</text></g><g id="shape178-56" transform="translate(445.805,-132.819)"><title>Kreis.178</title><path d="M0 269.58 A9.49606 9.49606 0 1 1 18.99 269.58 A9.49606 9.49606 0 0 1 0 269.58 Z" class="st10"/></g><g id="shape179-58" transform="translate(439.71,-126.724)"><title>Quadrat.179</title><g id="shadow179-59" class="st11"><path d="M0 279.08 L31.18 279.08 L31.18 247.9 L0 247.9 L0 279.08 Z" class="st12" transform="matrix(1,0,0,1,0.345598,1.97279)"/></g><path d="M0 279.08 L31.18 279.08 L31.18 247.9 L0 247.9 L0 279.08 Z" class="st13"/></g><g id="shape181-63" transform="translate(455.301,-126.724)"><title>Dynamischer Verbinder</title><path d="M0 279.08 L0 300.34 L67.14 300.34 L67.14 263.49 L85.65 263.49" class="st16"/></g><g id="shape182-69" transform="translate(409.364,-150.323)"><title>Dynamischer Verbinder.182</title><path d="M0 272.49 L-0 247.86 L160.74 247.86 L160.74 257.94" class="st16"/></g><g id="shape183-74" transform="translate(361.175,-119.142)"><title>Dynamischer Verbinder.183</title><path d="M0 272.49 L0 305.45 L208.93 305.45 L208.93 285.06" class="st16"/></g></g></svg>