<svg xmlns="http://www.w3.org/2000/svg" xmlns:ev="http://www.w3.org/2001/xml-events" xmlns:xlink="http://www.w3.org/1999/xlink" width="1114.061" height="608.851" class="st18" color-interpolation-filters="sRGB" viewBox="0 0 835.549 456.639" xml:space="preserve"><style type="text/css">.st1,.st2{fill:none;stroke:none;stroke-width:2}.st2{fill:#ededed;stroke:#a8d08d;stroke-dasharray:6,6}.st3,.st4{fill:#000;stroke:#c7c8c8;stroke-width:.25}.st4{stroke:#ededed;stroke-width:4.5}.st5{fill:#ededed;stroke:none;stroke-width:.25}.st6{fill:#000;font-family:Montserrat;font-size:1.5em}.st7{fill:#c9c9c9;stroke:none;stroke-width:.25}.st10,.st8,.st9{stroke:none;stroke-width:2}.st8,.st9{fill:#90aadb}.st9{fill:#a8d08d}.st10{fill:#ed7d31}.st11{stroke:#000;stroke-width:2.75}.st12,.st13{stroke-width:2}.st12{fill:none;stroke:#ed7d31;stroke-dasharray:6,6}.st13{fill:#ffc000;stroke:none}.st14,.st15{stroke-dasharray:6,6;stroke-width:2}.st14{fill:#ededed;stroke:#90aadb}.st15{fill:none}.st15,.st16,.st17{stroke:#ffc000}.st16{marker-end:url(#mrkr13-97);stroke-linecap:round;stroke-linejoin:round;stroke-width:2}.st17{fill:#ffc000;fill-opacity:1;stroke-opacity:1;stroke-width:.44247787610619}.st18{fill:none;fill-rule:evenodd;font-size:12px;overflow:visible;stroke-linecap:square;stroke-miterlimit:3}</style><defs id="Markers"><g id="lend13"><path d="M 3 1 L 0 0 L 3 -1 L 3 1" style="stroke:none"/></g><marker id="mrkr13-97" class="st17" markerUnits="strokeWidth" orient="auto" overflow="visible" refX="-6.78"><use transform="scale(-2.26,-2.26)" xlink:href="#lend13"/></marker></defs><g><title>Zeichenblatt-1</title><g id="group37-1" transform="translate(276.709,-126.717)"><title>Tabelle.37</title></g><g id="shape52-2" transform="translate(58.4409,-181.693)"><title>Tabelle.52</title><rect width="676.898" height="46.772" x="0" y="409.867" class="st1"/></g><g id="shape66-4" transform="translate(58.4409,-120.04)"><title>Tabelle.66</title><rect width="676.898" height="46.772" x="0" y="409.867" class="st1"/></g><g id="shape74-6" transform="translate(32.5892,-77.2517)"><title>Rechteck.74</title><path d="M0 456.64 L732.52 456.64 L732.52 315.5 L0 315.5 L0 456.64 Z" class="st2"/></g><g id="group75-8" transform="translate(274.709,-83.3309)"><title>Tabelle.75</title></g><g id="shape76-9" transform="translate(150.819,-160.276)"><title>Rechteck.76</title><rect width="548.504" height="2.835" x="0" y="453.804" class="st3"/></g><g id="shape78-11" transform="translate(306.728,-152.197)"><title>Kreis.78</title><path d="M0 447.14 A9.49606 9.49606 0 1 1 18.99 447.14 A9.49606 9.49606 0 0 1 0 447.14 Z" class="st4"/></g><g id="shape79-13" transform="translate(400.862,-152.197)"><title>Kreis.79</title><path d="M0 447.14 A9.49606 9.49606 0 1 1 18.99 447.14 A9.49606 9.49606 0 0 1 0 447.14 Z" class="st4"/></g><g id="shape80-15" transform="translate(44.5197,-152.197)"><title>Rechteck.80</title><desc>Master</desc><rect width="82.797" height="18.992" x="0" y="437.647" class="st5"/><text x="11.07" y="452.54" class="st6">Master</text></g><g id="shape81-18" transform="translate(56.4409,-138.307)"><title>Tabelle.81</title><rect width="676.898" height="46.772" x="0" y="409.867" class="st1"/></g><g id="shape82-20" transform="translate(32.3465,-190.04)"><title>Tabelle.82</title><desc>YourLocalClone</desc><rect width="732.522" height="28.346" x="0" y="428.292" class="st7"/><text x="296.23" y="447.87" class="st6">YourLocalClone</text></g><g id="shape88-23" transform="translate(56.4409,-76.6538)"><title>Tabelle.88</title><rect width="676.898" height="46.772" x="0" y="409.867" class="st1"/></g><g id="shape91-25" transform="translate(30.3465,-235.289)"><title>Rechteck.91</title><desc>Your Fork</desc><rect width="113.386" height="28.346" x="0" y="428.292" class="st8"/><text x="13.89" y="447.87" class="st6">Your Fork</text></g><g id="shape92-28" transform="translate(30.3465,-30.3465)"><title>Rechteck.92</title><desc>Your local Clone</desc><rect width="170.079" height="28.346" x="0" y="428.292" class="st9"/><text x="12.52" y="447.87" class="st6">Your local Clone</text></g><g id="shape116-31" transform="translate(43.811,-104.082)"><title>Rechteck.116</title><desc>Feature/YourFeature</desc><rect width="205.512" height="18.992" x="0" y="437.647" class="st5"/><text x="10.76" y="452.54" class="st6">Feature/YourFeature</text></g><g id="shape124-34" transform="translate(222.986,-30.3465)"><title>Rechteck.124</title><desc>Your local Branch</desc><rect width="205.512" height="28.346" x="0" y="428.292" class="st10"/><text x="23.81" y="447.87" class="st6">Your local Branch</text></g><g id="shape119-37" transform="translate(150.819,-161.693)"><title>Dynamischer Verbinder.119</title><path d="M0 456.64 L82.24 456.64 A24.0577 24.0577 0 0 1 106.3 480.7 L106.3 480.7 A24.0577 24.0577 -180 0 0 130.36 504.75 L191.34 504.75" class="st11"/></g><g id="shape131-40" transform="translate(342.157,-112.16)"><title>Rechteck.131</title><rect width="358.583" height="2.835" x="0" y="453.804" class="st3"/></g><g id="shape122-42" transform="translate(450.219,-104.082)"><title>Kreis.122</title><path d="M0 447.14 A9.49606 9.49606 0 1 1 18.99 447.14 A9.49606 9.49606 0 0 1 0 447.14 Z" class="st4"/></g><g id="shape121-44" transform="translate(402.879,-104.082)"><title>Kreis.121</title><path d="M0 447.14 A9.49606 9.49606 0 1 1 18.99 447.14 A9.49606 9.49606 0 0 1 0 447.14 Z" class="st4"/></g><g id="shape120-46" transform="translate(353.533,-104.082)"><title>Kreis.120</title><path d="M0 447.14 A9.49606 9.49606 0 1 1 18.99 447.14 A9.49606 9.49606 0 0 1 0 447.14 Z" class="st4"/></g><g id="shape77-48" transform="translate(174.042,-152.197)"><title>Kreis.77</title><path d="M0 447.14 A9.49606 9.49606 0 1 1 18.99 447.14 A9.49606 9.49606 0 0 1 0 447.14 Z" class="st4"/></g><g id="shape133-50" transform="translate(43.811,-92.6329)"><title>Rechteck.133</title><path d="M0 456.64 L709.37 456.64 L709.37 415.13 L0 415.13 L0 456.64 Z" class="st12"/></g><g id="shape136-52" transform="translate(607.449,-235.289)"><title>Rechteck.136</title><desc>Push to GitHub</desc><rect width="155.663" height="28.346" x="0" y="428.292" class="st13"/><text x="10.74" y="447.87" class="st6">Push to GitHub</text></g><g id="shape137-55" transform="translate(32.5892,-285.158)"><title>Rechteck.137</title><path d="M0 456.64 L732.52 456.64 L732.52 315.5 L0 315.5 L0 456.64 Z" class="st14"/></g><g id="group138-57" transform="translate(274.709,-360.103)"><title>Tabelle.138</title></g><g id="shape139-58" transform="translate(150.819,-368.182)"><title>Rechteck.139</title><rect width="548.504" height="2.835" x="0" y="453.804" class="st3"/></g><g id="shape140-60" transform="translate(306.728,-360.103)"><title>Kreis.140</title><path d="M0 447.14 A9.49606 9.49606 0 1 1 18.99 447.14 A9.49606 9.49606 0 0 1 0 447.14 Z" class="st4"/></g><g id="shape141-62" transform="translate(400.862,-360.103)"><title>Kreis.141</title><path d="M0 447.14 A9.49606 9.49606 0 1 1 18.99 447.14 A9.49606 9.49606 0 0 1 0 447.14 Z" class="st4"/></g><g id="shape142-64" transform="translate(44.5197,-360.103)"><title>Rechteck.142</title><desc>Master</desc><rect width="82.797" height="18.992" x="0" y="437.647" class="st5"/><text x="11.07" y="452.54" class="st6">Master</text></g><g id="shape143-67" transform="translate(56.4409,-346.213)"><title>Tabelle.143</title><rect width="676.898" height="46.772" x="0" y="409.867" class="st1"/></g><g id="shape144-69" transform="translate(32.3465,-397.946)"><title>Tabelle.144</title><desc>YourUsername/SpongePowered</desc><rect width="732.522" height="28.346" x="0" y="428.292" class="st7"/><text x="222.29" y="447.87" class="st6">YourUsername/SpongePowered</text></g><g id="shape147-72" transform="translate(56.4409,-284.56)"><title>Tabelle.147</title><rect width="676.898" height="46.772" x="0" y="409.867" class="st1"/></g><g id="shape152-74" transform="translate(43.811,-318.373)"><title>Rechteck.152</title><desc>Feature/YourFeature</desc><rect width="205.512" height="18.992" x="0" y="437.647" class="st5"/><text x="10.76" y="452.54" class="st6">Feature/YourFeature</text></g><g id="shape153-77" transform="translate(150.819,-369.599)"><title>Dynamischer Verbinder.153</title><path d="M0 456.64 L85.43 456.64 A20.8649 20.8649 0 0 1 106.3 477.5 L106.3 477.5 A20.8649 20.8649 -180 0 0 127.16 498.37 L191.34 498.37" class="st11"/></g><g id="shape154-80" transform="translate(342.157,-326.452)"><title>Rechteck.154</title><rect width="358.583" height="2.835" x="0" y="453.804" class="st3"/></g><g id="shape155-82" transform="translate(450.219,-318.373)"><title>Kreis.155</title><path d="M0 447.14 A9.49606 9.49606 0 1 1 18.99 447.14 A9.49606 9.49606 0 0 1 0 447.14 Z" class="st4"/></g><g id="shape156-84" transform="translate(402.879,-318.373)"><title>Kreis.156</title><path d="M0 447.14 A9.49606 9.49606 0 1 1 18.99 447.14 A9.49606 9.49606 0 0 1 0 447.14 Z" class="st4"/></g><g id="shape157-86" transform="translate(353.533,-318.373)"><title>Kreis.157</title><path d="M0 447.14 A9.49606 9.49606 0 1 1 18.99 447.14 A9.49606 9.49606 0 0 1 0 447.14 Z" class="st4"/></g><g id="shape158-88" transform="translate(174.042,-360.103)"><title>Kreis.158</title><path d="M0 447.14 A9.49606 9.49606 0 1 1 18.99 447.14 A9.49606 9.49606 0 0 1 0 447.14 Z" class="st4"/></g><g id="shape159-90" transform="translate(43.811,-306.925)"><title>Rechteck.159</title><path d="M0 456.64 L709.37 456.64 L709.37 415.13 L0 415.13 L0 456.64 Z" class="st15"/></g><g id="shape160-92" transform="translate(746.094,-113.386)"><title>Dynamischer Verbinder</title><path d="M7.09 456.64 L41.11 456.64 L41.11 242.35 L20.65 242.35" class="st16"/></g></g></svg>