<svg xmlns="http://www.w3.org/2000/svg" xmlns:ev="http://www.w3.org/2001/xml-events" xmlns:xlink="http://www.w3.org/1999/xlink" width="1060.291" height="320.137" class="st15" color-interpolation-filters="sRGB" viewBox="0 0 795.215 240.103" xml:space="preserve"><style type="text/css">.st1{fill:#ededed;stroke:#a8d08d;stroke-dasharray:6,6;stroke-width:2}.st2,.st3{fill:#000;stroke:#c7c8c8;stroke-width:.25}.st3{fill:#ededed;stroke:none}.st4{fill:#000;font-family:Montserrat;font-size:1.5em}.st5{fill:none;stroke:none;stroke-width:2}.st6,.st7,.st8{fill:#c9c9c9;stroke:none;stroke-width:.25}.st7,.st8{fill:#a8d08d;stroke-width:2}.st8{fill:#ed7d31}.st9{stroke:#000;stroke-width:2.75}.st10,.st11{fill:#000;stroke:none;stroke-width:.25}.st11{stroke:#ededed;stroke-width:4.5}.st12{visibility:visible}.st13,.st14{fill:none;stroke-dasharray:6,6}.st13{filter:url(#filter_2);stroke:#5b9bd5;stroke-opacity:.22}.st14{stroke:#ed7d31;stroke-width:2}.st15{fill:none;fill-rule:evenodd;font-size:12px;overflow:visible;stroke-linecap:square;stroke-miterlimit:3}</style><defs id="Filters"><filter id="filter_2"><feGaussianBlur stdDeviation="2"/></filter></defs><g><title>Zeichenblatt-1</title><g id="shape74-1" transform="translate(32.3465,-76.4094)"><title>Rechteck.74</title><path d="M0 240.1 L732.52 240.1 L732.52 106.76 L0 106.76 L0 240.1 Z" class="st1"/></g><g id="group75-3" transform="translate(274.466,-143.567)"><title>Tabelle.75</title></g><g id="shape76-4" transform="translate(150.576,-151.646)"><title>Rechteck.76</title><rect width="548.504" height="2.835" x="0" y="237.268" class="st2"/></g><g id="shape80-6" transform="translate(44.277,-143.567)"><title>Rechteck.80</title><desc>Master</desc><rect width="82.797" height="18.992" x="0" y="221.11" class="st3"/><text x="11.07" y="236.01" class="st4">Master</text></g><g id="shape81-9" transform="translate(56.1982,-129.677)"><title>Tabelle.81</title><rect width="676.898" height="46.772" x="0" y="193.331" class="st5"/></g><g id="shape82-11" transform="translate(32.1037,-181.41)"><title>Tabelle.82</title><desc>YourLocalClone</desc><rect width="732.522" height="28.346" x="0" y="211.756" class="st6"/><text x="296.23" y="231.33" class="st4">YourLocalClone</text></g><g id="shape92-14" transform="translate(30.3465,-30.3465)"><title>Rechteck.92</title><desc>Your local Clone</desc><rect width="170.079" height="28.346" x="0" y="211.756" class="st7"/><text x="12.52" y="231.33" class="st4">Your local Clone</text></g><g id="shape116-17" transform="translate(43.5683,-103.22)"><title>Rechteck.116</title><desc>Feature/YourFeature</desc><rect width="205.512" height="18.992" x="0" y="221.11" class="st3"/><text x="10.76" y="236.01" class="st4">Feature/YourFeature</text></g><g id="shape124-20" transform="translate(222.986,-30.3465)"><title>Rechteck.124</title><desc>Your local Commits</desc><rect width="205.512" height="28.346" x="0" y="211.756" class="st8"/><text x="14.93" y="231.33" class="st4">Your local Commits</text></g><g id="shape119-23" transform="translate(150.576,-153.063)"><title>Dynamischer Verbinder.119</title><path d="M0 240.1 L86.13 240.1 A20.1734 20.1734 0 0 1 106.3 260.28 L106.3 260.28 A20.1734 20.1734 -180 0 0 126.47 280.45 L191.34 280.45" class="st9"/></g><g id="shape131-26" transform="translate(341.915,-111.299)"><title>Rechteck.131</title><rect width="358.583" height="2.835" x="0" y="237.268" class="st10"/></g><g id="shape122-28" transform="translate(449.976,-103.22)"><title>Kreis.122</title><path d="M0 230.61 A9.49606 9.49606 0 1 1 18.99 230.61 A9.49606 9.49606 0 0 1 0 230.61 Z" class="st11"/></g><g id="shape121-30" transform="translate(402.636,-103.22)"><title>Kreis.121</title><path d="M0 230.61 A9.49606 9.49606 0 1 1 18.99 230.61 A9.49606 9.49606 0 0 1 0 230.61 Z" class="st11"/></g><g id="shape120-32" transform="translate(353.29,-103.22)"><title>Kreis.120</title><path d="M0 230.61 A9.49606 9.49606 0 1 1 18.99 230.61 A9.49606 9.49606 0 0 1 0 230.61 Z" class="st11"/></g><g id="shape127-34" transform="translate(347.584,-96.1336)"><title>Quadrat.127</title><g id="shadow127-35" class="st12"><path d="M0 240.1 L31.18 240.1 L31.18 208.92 L0 208.92 L0 240.1 Z" class="st13" transform="matrix(1,0,0,1,0.345598,1.97279)"/></g><path d="M0 240.1 L31.18 240.1 L31.18 208.92 L0 208.92 L0 240.1 Z" class="st14"/></g><g id="shape128-39" transform="translate(395.773,-96.1336)"><title>Quadrat.128</title><g id="shadow128-40" class="st12"><path d="M0 240.1 L31.18 240.1 L31.18 208.92 L0 208.92 L0 240.1 Z" class="st13" transform="matrix(1,0,0,1,0.345598,1.97279)"/></g><path d="M0 240.1 L31.18 240.1 L31.18 208.92 L0 208.92 L0 240.1 Z" class="st14"/></g><g id="shape125-44" transform="translate(443.962,-96.1336)"><title>Quadrat</title><g id="shadow125-45" class="st12"><path d="M0 240.1 L31.18 240.1 L31.18 208.92 L0 208.92 L0 240.1 Z" class="st13" transform="matrix(1,0,0,1,0.345598,1.97279)"/></g><path d="M0 240.1 L31.18 240.1 L31.18 208.92 L0 208.92 L0 240.1 Z" class="st14"/></g><g id="shape77-49" transform="translate(173.799,-143.567)"><title>Kreis.77</title><path d="M0 230.61 A9.49606 9.49606 0 1 1 18.99 230.61 A9.49606 9.49606 0 0 1 0 230.61 Z" class="st11"/></g></g></svg>