<svg xmlns="http://www.w3.org/2000/svg" xmlns:ev="http://www.w3.org/2001/xml-events" xmlns:xlink="http://www.w3.org/1999/xlink" width="1054.954" height="344.157" class="st15" color-interpolation-filters="sRGB" viewBox="0 0 791.215 258.118" xml:space="preserve"><style type="text/css">.st1{fill:#ededed;stroke:#ffc000;stroke-dasharray:14,10;stroke-width:2}.st2,.st3{fill:#000;stroke:#c7c8c8;stroke-width:.25}.st3{stroke:#ededed;stroke-width:4.5}.st4{fill:#ededed;stroke:none;stroke-width:.25}.st5{fill:#000;font-family:Montserrat;font-size:1.5em}.st6{fill:#ffc000}.st6,.st7,.st8{stroke:none;stroke-width:1}.st7{fill:#a8d08d}.st8{fill:#90aadb}.st9{fill:none;stroke:#a8d08d;stroke-dasharray:6,6;stroke-width:2}.st10{visibility:visible}.st11,.st12{fill:none;stroke-dasharray:6,6}.st11{filter:url(#filter_2);stroke:#5b9bd5;stroke-opacity:.22}.st12{stroke:#90aadb;stroke-width:2}.st13{fill:#c9c9c9;stroke:none;stroke-width:.25}.st14{stroke:#000;stroke-width:2.75}.st15{fill:none;fill-rule:evenodd;font-size:12px;overflow:visible;stroke-linecap:square;stroke-miterlimit:3}</style><defs id="Filters"><filter id="filter_2"><feGaussianBlur stdDeviation="2"/></filter></defs><g><title>Zeichenblatt-1</title><g id="shape25-1" transform="translate(30.3465,-71.8661)"><title>Rechteck.25</title><path d="M0 258.12 L732.52 258.12 L732.52 102.21 L0 102.21 L0 258.12 Z" class="st1"/></g><g id="group37-3" transform="translate(272.709,-161.583)"><title>Tabelle.37</title></g><g id="shape23-4" transform="translate(159.323,-169.661)"><title>Rechteck.23</title><rect width="538" height="2.835" x="0" y="255.283" class="st2"/></g><g id="shape40-6" transform="translate(398.862,-161.583)"><title>Kreis.40</title><path d="M0 248.62 A9.49606 9.49606 0 1 1 18.99 248.62 A9.49606 9.49606 0 0 1 0 248.62 Z" class="st3"/></g><g id="shape42-8" transform="translate(53.0236,-161.583)"><title>Rechteck</title><desc>Master</desc><rect width="99.213" height="18.992" x="0" y="239.126" class="st4"/><text x="19.28" y="254.02" class="st5">Master</text></g><g id="shape45-11" transform="translate(31.7638,-29.3465)"><title>Tabelle.45</title><desc>Repository</desc><rect width="127.559" height="28.346" x="0" y="229.772" class="st6"/><text x="15.84" y="249.34" class="st5">Repository</text></g><g id="shape46-14" transform="translate(166.409,-29.3465)"><title>Tabelle.46</title><desc>Branch</desc><rect width="127.559" height="28.346" x="0" y="229.772" class="st7"/><text x="31.54" y="249.34" class="st5">Branch</text></g><g id="shape47-17" transform="translate(301.055,-29.3465)"><title>Tabelle.47</title><desc>Commit</desc><rect width="127.559" height="28.346" x="0" y="229.772" class="st8"/><text x="26.89" y="249.34" class="st5">Commit</text></g><g id="shape52-20" transform="translate(54.4409,-147.693)"><title>Tabelle.52</title><path d="M0 258.12 L676.9 258.12 L676.9 211.35 L0 211.35 L0 258.12 Z" class="st9"/></g><g id="shape54-22" transform="translate(165.405,-155.902)"><title>Quadrat</title><g id="shadow54-23" class="st10"><path d="M0 258.12 L30.35 258.12 L30.35 227.76 L0 227.76 L0 258.12 Z" class="st11" transform="matrix(1,0,0,1,0.345598,1.97279)"/></g><path d="M0 258.12 L30.35 258.12 L30.35 227.76 L0 227.76 L0 258.12 Z" class="st12"/></g><g id="shape56-27" transform="translate(299.047,-155.902)"><title>Quadrat.56</title><g id="shadow56-28" class="st10"><path d="M0 258.12 L30.35 258.12 L30.35 227.76 L0 227.76 L0 258.12 Z" class="st11" transform="matrix(1,0,0,1,0.345598,1.97279)"/></g><path d="M0 258.12 L30.35 258.12 L30.35 227.76 L0 227.76 L0 258.12 Z" class="st12"/></g><g id="shape57-32" transform="translate(393.181,-155.902)"><title>Quadrat.57</title><g id="shadow57-33" class="st10"><path d="M0 258.12 L30.35 258.12 L30.35 227.76 L0 227.76 L0 258.12 Z" class="st11" transform="matrix(1,0,0,1,0.345598,1.97279)"/></g><path d="M0 258.12 L30.35 258.12 L30.35 227.76 L0 227.76 L0 258.12 Z" class="st12"/></g><g id="shape36-37" transform="translate(31.7638,-199.425)"><title>Tabelle.36</title><desc>SpongePowered</desc><rect width="731.105" height="28.346" x="0" y="229.772" class="st13"/><text x="291.2" y="249.34" class="st5">SpongePowered</text></g><g id="shape60-40" transform="translate(279.795,-108.008)"><title>Rechteck.60</title><rect width="414.693" height="2.835" x="0" y="255.283" class="st2"/></g><g id="shape65-42" transform="translate(53.0236,-99.9291)"><title>Rechteck.65</title><desc>Feature 1</desc><rect width="99.213" height="18.992" x="0" y="239.126" class="st4"/><text x="9.68" y="254.02" class="st5">Feature 1</text></g><g id="shape66-45" transform="translate(54.4409,-86.0394)"><title>Tabelle.66</title><path d="M0 258.12 L676.9 258.12 L676.9 211.35 L0 211.35 L0 258.12 Z" class="st9"/></g><g id="shape68-47" transform="translate(322.055,-94.248)"><title>Quadrat.68</title><g id="shadow68-48" class="st10"><path d="M0 258.12 L30.35 258.12 L30.35 227.76 L0 227.76 L0 258.12 Z" class="st11" transform="matrix(1,0,0,1,0.345598,1.97279)"/></g><path d="M0 258.12 L30.35 258.12 L30.35 227.76 L0 227.76 L0 258.12 Z" class="st12"/></g><g id="shape69-52" transform="translate(371.402,-94.248)"><title>Quadrat.69</title><g id="shadow69-53" class="st10"><path d="M0 258.12 L30.35 258.12 L30.35 227.76 L0 227.76 L0 258.12 Z" class="st11" transform="matrix(1,0,0,1,0.345598,1.97279)"/></g><path d="M0 258.12 L30.35 258.12 L30.35 227.76 L0 227.76 L0 258.12 Z" class="st12"/></g><g id="shape70-57" transform="translate(418.741,-94.248)"><title>Quadrat.70</title><g id="shadow70-58" class="st10"><path d="M0 258.12 L30.35 258.12 L30.35 227.76 L0 227.76 L0 258.12 Z" class="st11" transform="matrix(1,0,0,1,0.345598,1.97279)"/></g><path d="M0 258.12 L30.35 258.12 L30.35 227.76 L0 227.76 L0 258.12 Z" class="st12"/></g><g id="shape71-62" transform="translate(152.236,-171.079)"><title>Dynamischer Verbinder</title><path d="M0 258.12 L53.12 258.12 A28.3465 28.3465 0 0 1 81.46 286.46 L81.46 291.43 A28.3465 28.3465 -180 0 0 109.81 319.77 L542.25 319.77" class="st14"/></g><g id="shape32-65" transform="translate(172.042,-161.583)"><title>Kreis.32</title><path d="M0 248.62 A9.49606 9.49606 0 1 1 18.99 248.62 A9.49606 9.49606 0 0 1 0 248.62 Z" class="st3"/></g><g id="shape39-67" transform="translate(304.728,-161.583)"><title>Kreis.39</title><path d="M0 248.62 A9.49606 9.49606 0 1 1 18.99 248.62 A9.49606 9.49606 0 0 1 0 248.62 Z" class="st3"/></g><g id="shape62-69" transform="translate(327.736,-99.9291)"><title>Kreis.62</title><path d="M0 248.62 A9.49606 9.49606 0 1 1 18.99 248.62 A9.49606 9.49606 0 0 1 0 248.62 Z" class="st3"/></g><g id="shape63-71" transform="translate(377.083,-99.9291)"><title>Kreis.63</title><path d="M0 248.62 A9.49606 9.49606 0 1 1 18.99 248.62 A9.49606 9.49606 0 0 1 0 248.62 Z" class="st3"/></g><g id="shape64-73" transform="translate(424.422,-99.9291)"><title>Kreis.64</title><path d="M0 248.62 A9.49606 9.49606 0 1 1 18.99 248.62 A9.49606 9.49606 0 0 1 0 248.62 Z" class="st3"/></g></g></svg>