<svg xmlns="http://www.w3.org/2000/svg" xmlns:ev="http://www.w3.org/2001/xml-events" xmlns:xlink="http://www.w3.org/1999/xlink" width="1057.622" height="940" class="st17" color-interpolation-filters="sRGB" viewBox="0 0 793.215 705" xml:space="preserve"><style type="text/css">.st1{fill:#ededed;stroke:#90aadb;stroke-dasharray:6,6;stroke-width:2}.st2,.st3{fill:#000;stroke:#c7c8c8;stroke-width:.25}.st3{fill:#ededed;stroke:none}.st4{fill:#000;font-family:Montserrat;font-size:1.5em}.st5,.st6{fill:none;stroke:none;stroke-width:2}.st6{fill:#c9c9c9;stroke-width:.25}.st7{fill:#ededed;stroke:#a8d08d;stroke-dasharray:6,6;stroke-width:2}.st8{stroke:#000;stroke-width:2.75}.st9{marker-end:url(#mrkr13-49);stroke:#96f;stroke-linecap:round;stroke-linejoin:round;stroke-width:2}.st10{fill:#96f;fill-opacity:1;stroke:#96f;stroke-opacity:1;stroke-width:.38167938931298}.st11,.st12{fill:#90aadb;stroke:none;stroke-width:2}.st12{fill:#a8d08d}.st13{fill:#96f;stroke:none}.st13,.st14,.st15{stroke-width:2}.st14{fill:#ededed;stroke:#ffc000;stroke-dasharray:6,6}.st15{fill:#ffc000;stroke:none}.st16{fill:#000;stroke:#ededed;stroke-width:4.5}.st17{fill:none;fill-rule:evenodd;font-size:12px;overflow:visible;stroke-linecap:square;stroke-miterlimit:3}</style><defs id="Markers"><g id="lend13"><path d="M 3 1 L 0 0 L 3 -1 L 3 1" style="stroke:none"/></g><marker id="mrkr13-49" class="st10" markerUnits="strokeWidth" orient="auto" overflow="visible" refX="-7.86"><use transform="scale(-2.62,-2.62)" xlink:href="#lend13"/></marker></defs><g><title>Zeichenblatt-1</title><g id="shape25-1" transform="translate(30.3465,-301.229)"><title>Rechteck.25</title><path d="M0 705 L732.52 705 L732.52 549.09 L0 549.09 L0 705 Z" class="st1"/></g><g id="group37-3" transform="translate(272.709,-390.945)"><title>Tabelle.37</title></g><g id="shape23-4" transform="translate(159.323,-399.024)"><title>Rechteck.23</title><rect width="538" height="2.835" x="0" y="702.166" class="st2"/></g><g id="shape42-6" transform="translate(53.0236,-390.945)"><title>Rechteck</title><desc>Master</desc><rect width="99.213" height="18.992" x="0" y="686.008" class="st3"/><text x="19.28" y="700.9" class="st4">Master</text></g><g id="shape52-9" transform="translate(54.4409,-377.055)"><title>Tabelle.52</title><rect width="676.898" height="46.772" x="0" y="658.229" class="st5"/></g><g id="shape36-11" transform="translate(30.3465,-428.788)"><title>Tabelle.36</title><desc>YourUsername/SpongePowered</desc><rect width="732.522" height="28.346" x="0" y="676.654" class="st6"/><text x="222.29" y="696.23" class="st4">YourUsername/SpongePowered</text></g><g id="shape60-14" transform="translate(279.795,-337.37)"><title>Rechteck.60</title><rect width="414.693" height="2.835" x="0" y="702.166" class="st2"/></g><g id="shape65-16" transform="translate(63.7795,-329.292)"><title>Rechteck.65</title><desc>Feature 1</desc><rect width="99.213" height="18.992" x="0" y="686.008" class="st3"/><text x="9.68" y="700.9" class="st4">Feature 1</text></g><g id="shape66-19" transform="translate(54.4409,-315.402)"><title>Tabelle.66</title><rect width="676.898" height="46.772" x="0" y="658.229" class="st5"/></g><g id="shape74-21" transform="translate(30.3465,-79.3782)"><title>Rechteck.74</title><path d="M0 705 L732.52 705 L732.52 549.09 L0 549.09 L0 705 Z" class="st7"/></g><g id="group75-23" transform="translate(272.709,-169.095)"><title>Tabelle.75</title></g><g id="shape76-24" transform="translate(159.323,-177.173)"><title>Rechteck.76</title><rect width="538" height="2.835" x="0" y="702.166" class="st2"/></g><g id="shape80-26" transform="translate(53.0236,-169.095)"><title>Rechteck.80</title><desc>Master</desc><rect width="99.213" height="18.992" x="0" y="686.008" class="st3"/><text x="19.28" y="700.9" class="st4">Master</text></g><g id="shape81-29" transform="translate(54.4409,-155.205)"><title>Tabelle.81</title><rect width="676.898" height="46.772" x="0" y="658.229" class="st5"/></g><g id="shape82-31" transform="translate(30.3465,-206.937)"><title>Tabelle.82</title><desc>YourLocalClone</desc><rect width="732.522" height="28.346" x="0" y="676.654" class="st6"/><text x="296.23" y="696.23" class="st4">YourLocalClone</text></g><g id="shape83-34" transform="translate(279.795,-115.52)"><title>Rechteck.83</title><rect width="414.693" height="2.835" x="0" y="702.166" class="st2"/></g><g id="shape87-36" transform="translate(63.7795,-107.441)"><title>Rechteck.87</title><desc>Feature 1</desc><rect width="99.213" height="18.992" x="0" y="686.008" class="st3"/><text x="9.68" y="700.9" class="st4">Feature 1</text></g><g id="shape88-39" transform="translate(54.4409,-93.5514)"><title>Tabelle.88</title><rect width="676.898" height="46.772" x="0" y="658.229" class="st5"/></g><g id="shape89-41" transform="translate(152.236,-178.591)"><title>Dynamischer Verbinder.89</title><path d="M0 705 L53.12 705 A28.3465 28.3465 0 0 1 81.46 733.35 L81.46 738.31 A28.3465 28.3465 -180 0 0 109.81 766.65 L542.25 766.65" class="st8"/></g><g id="shape90-44" transform="translate(389.521,-301.229)"><title>Dynamischer Verbinder.90</title><path d="M7.09 705 L7.09 755.23" class="st9"/></g><g id="shape91-50" transform="translate(30.3465,-253.77)"><title>Rechteck.91</title><desc>Your Fork</desc><rect width="113.386" height="28.346" x="0" y="676.654" class="st11"/><text x="13.89" y="696.23" class="st4">Your Fork</text></g><g id="shape92-53" transform="translate(30.3465,-30.3465)"><title>Rechteck.92</title><desc>Your local Clone</desc><rect width="170.079" height="28.346" x="0" y="676.654" class="st12"/><text x="12.52" y="696.23" class="st4">Your local Clone</text></g><g id="shape95-56" transform="translate(413.024,-253.77)"><title>Rechteck.95</title><desc>Cloning</desc><rect width="99.213" height="28.346" x="0" y="676.654" class="st13"/><text x="14.8" y="696.23" class="st4">Cloning</text></g><g id="shape97-59" transform="translate(30.3465,-518.748)"><title>Rechteck.97</title><path d="M0 705 L732.52 705 L732.52 549.09 L0 549.09 L0 705 Z" class="st14"/></g><g id="group98-61" transform="translate(272.709,-608.465)"><title>Tabelle.98</title></g><g id="shape99-62" transform="translate(159.323,-616.544)"><title>Rechteck.99</title><rect width="538" height="2.835" x="0" y="702.166" class="st2"/></g><g id="shape103-64" transform="translate(53.0236,-608.465)"><title>Rechteck.103</title><desc>Master</desc><rect width="99.213" height="18.992" x="0" y="686.008" class="st3"/><text x="19.28" y="700.9" class="st4">Master</text></g><g id="shape104-67" transform="translate(54.4409,-594.575)"><title>Tabelle.104</title><rect width="676.898" height="46.772" x="0" y="658.229" class="st5"/></g><g id="shape105-69" transform="translate(30.3465,-646.307)"><title>Tabelle.105</title><desc>SpongePowered</desc><rect width="732.522" height="28.346" x="0" y="676.654" class="st6"/><text x="291.91" y="696.23" class="st4">SpongePowered</text></g><g id="shape106-72" transform="translate(279.795,-554.89)"><title>Rechteck.106</title><rect width="414.693" height="2.835" x="0" y="702.166" class="st2"/></g><g id="shape110-74" transform="translate(63.7795,-546.811)"><title>Rechteck.110</title><desc>Feature 1</desc><rect width="99.213" height="18.992" x="0" y="686.008" class="st3"/><text x="9.68" y="700.9" class="st4">Feature 1</text></g><g id="shape111-77" transform="translate(54.4409,-532.921)"><title>Tabelle.111</title><rect width="676.898" height="46.772" x="0" y="658.229" class="st5"/></g><g id="shape112-79" transform="translate(152.236,-617.961)"><title>Dynamischer Verbinder.112</title><path d="M0 705 L53.12 705 A28.3465 28.3465 0 0 1 81.46 733.35 L81.46 738.31 A28.3465 28.3465 -180 0 0 109.81 766.65 L542.25 766.65" class="st8"/></g><g id="shape113-82" transform="translate(389.521,-518.748)"><title>Dynamischer Verbinder.113</title><path d="M7.09 705 L7.09 750.89" class="st9"/></g><g id="shape114-87" transform="translate(413.024,-475.916)"><title>Rechteck.114</title><desc>Forking</desc><rect width="99.213" height="28.346" x="0" y="676.654" class="st13"/><text x="15.62" y="696.23" class="st4">Forking</text></g><g id="shape115-90" transform="translate(30.3465,-475.916)"><title>Rechteck.115</title><desc>Our Repository</desc><rect width="170.079" height="28.346" x="0" y="676.654" class="st15"/><text x="18.06" y="696.23" class="st4">Our Repository</text></g><g id="shape84-93" transform="translate(327.736,-107.441)"><title>Kreis.84</title><path d="M0 695.5 A9.49606 9.49606 0 1 1 18.99 695.5 A9.49606 9.49606 0 0 1 0 695.5 Z" class="st16"/></g><g id="shape85-95" transform="translate(377.083,-107.441)"><title>Kreis.85</title><path d="M0 695.5 A9.49606 9.49606 0 1 1 18.99 695.5 A9.49606 9.49606 0 0 1 0 695.5 Z" class="st16"/></g><g id="shape86-97" transform="translate(424.422,-107.441)"><title>Kreis.86</title><path d="M0 695.5 A9.49606 9.49606 0 1 1 18.99 695.5 A9.49606 9.49606 0 0 1 0 695.5 Z" class="st16"/></g><g id="shape71-99" transform="translate(152.236,-400.441)"><title>Dynamischer Verbinder</title><path d="M0 705 L53.12 705 A28.3465 28.3465 0 0 1 81.46 733.35 L81.46 738.31 A28.3465 28.3465 -180 0 0 109.81 766.65 L542.25 766.65" class="st8"/></g><g id="shape64-102" transform="translate(424.422,-329.292)"><title>Kreis.64</title><path d="M0 695.5 A9.49606 9.49606 0 1 1 18.99 695.5 A9.49606 9.49606 0 0 1 0 695.5 Z" class="st16"/></g><g id="shape63-104" transform="translate(377.083,-329.292)"><title>Kreis.63</title><path d="M0 695.5 A9.49606 9.49606 0 1 1 18.99 695.5 A9.49606 9.49606 0 0 1 0 695.5 Z" class="st16"/></g><g id="shape62-106" transform="translate(327.736,-329.292)"><title>Kreis.62</title><path d="M0 695.5 A9.49606 9.49606 0 1 1 18.99 695.5 A9.49606 9.49606 0 0 1 0 695.5 Z" class="st16"/></g><g id="shape32-108" transform="translate(172.042,-390.945)"><title>Kreis.32</title><path d="M0 695.5 A9.49606 9.49606 0 1 1 18.99 695.5 A9.49606 9.49606 0 0 1 0 695.5 Z" class="st16"/></g><g id="shape107-110" transform="translate(327.736,-546.811)"><title>Kreis.107</title><path d="M0 695.5 A9.49606 9.49606 0 1 1 18.99 695.5 A9.49606 9.49606 0 0 1 0 695.5 Z" class="st16"/></g><g id="shape108-112" transform="translate(377.083,-546.811)"><title>Kreis.108</title><path d="M0 695.5 A9.49606 9.49606 0 1 1 18.99 695.5 A9.49606 9.49606 0 0 1 0 695.5 Z" class="st16"/></g><g id="shape109-114" transform="translate(424.422,-546.811)"><title>Kreis.109</title><path d="M0 695.5 A9.49606 9.49606 0 1 1 18.99 695.5 A9.49606 9.49606 0 0 1 0 695.5 Z" class="st16"/></g><g id="shape100-116" transform="translate(172.042,-608.465)"><title>Kreis.100</title><path d="M0 695.5 A9.49606 9.49606 0 1 1 18.99 695.5 A9.49606 9.49606 0 0 1 0 695.5 Z" class="st16"/></g><g id="shape77-118" transform="translate(172.042,-169.095)"><title>Kreis.77</title><path d="M0 695.5 A9.49606 9.49606 0 1 1 18.99 695.5 A9.49606 9.49606 0 0 1 0 695.5 Z" class="st16"/></g></g></svg>