<svg xmlns="http://www.w3.org/2000/svg" xmlns:ev="http://www.w3.org/2001/xml-events" xmlns:xlink="http://www.w3.org/1999/xlink" width="11.048in" height="719.98" class="st16" color-interpolation-filters="sRGB" viewBox="0 0 795.458 539.985" xml:space="preserve"><style type="text/css">.st1{fill:#000;stroke:#c7c8c8;stroke-width:.25}.st2,.st3{fill:#ededed}.st2{stroke:#90aadb;stroke-dasharray:6,6;stroke-width:2}.st3{stroke:none;stroke-width:.25}.st4{fill:#000;font-family:Montserrat;font-size:1.5em}.st5,.st6{fill:none;stroke:none;stroke-width:2}.st6{fill:#c9c9c9;stroke-width:.25}.st7{fill:#ededed;stroke:#a8d08d;stroke-dasharray:6,6;stroke-width:2}.st8,.st9{stroke:none}.st8{fill:#90aadb;stroke-width:2}.st9{fill:#a8d08d}.st10,.st11,.st9{stroke-width:2}.st10{fill:#ededed;stroke:#ffc000;stroke-dasharray:6,6}.st11{fill:#ffc000;stroke:none}.st12{fill:#000;stroke:#ededed;stroke-width:4.5}.st13{fill:#ed7d31;stroke:none;stroke-width:2}.st14{stroke:#000;stroke-width:2.75}.st15{fill:none;stroke:#ed7d31;stroke-dasharray:6,6;stroke-width:2}.st16{fill:none;fill-rule:evenodd;font-size:12px;overflow:visible;stroke-linecap:square;stroke-miterlimit:3}</style><g><title>Zeichenblatt-1</title><g id="shape131-1" transform="translate(342.157,-114.362)"><title>Rechteck.131</title><rect width="358.583" height="2.835" x="0" y="537.15" class="st1"/></g><g id="shape25-3" transform="translate(30.3465,-276.213)"><title>Rechteck.25</title><path d="M0 539.98 L732.52 539.98 L732.52 454.08 L0 454.08 L0 539.98 Z" class="st2"/></g><g id="group37-5" transform="translate(272.709,-295.929)"><title>Tabelle.37</title></g><g id="shape23-6" transform="translate(159.323,-304.008)"><title>Rechteck.23</title><rect width="538" height="2.835" x="0" y="537.15" class="st1"/></g><g id="shape42-8" transform="translate(53.0236,-295.929)"><title>Rechteck</title><desc>Master</desc><rect width="99.213" height="18.992" x="0" y="520.993" class="st3"/><text x="19.28" y="535.89" class="st4">Master</text></g><g id="shape52-11" transform="translate(54.4409,-282.04)"><title>Tabelle.52</title><rect width="676.898" height="46.772" x="0" y="493.213" class="st5"/></g><g id="shape36-13" transform="translate(30.3465,-333.772)"><title>Tabelle.36</title><desc>YourUsername/SpongePowered</desc><rect width="732.522" height="28.346" x="0" y="511.638" class="st6"/><text x="222.29" y="531.21" class="st4">YourUsername/SpongePowered</text></g><g id="shape66-16" transform="translate(56.4409,-150.386)"><title>Tabelle.66</title><rect width="676.898" height="46.772" x="0" y="493.213" class="st5"/></g><g id="shape74-18" transform="translate(32.5892,-72.8661)"><title>Rechteck.74</title><path d="M0 539.98 L732.52 539.98 L732.52 392.46 L0 392.46 L0 539.98 Z" class="st7"/></g><g id="group75-20" transform="translate(274.709,-154.197)"><title>Tabelle.75</title></g><g id="shape76-21" transform="translate(150.819,-162.276)"><title>Rechteck.76</title><rect width="548.504" height="2.835" x="0" y="537.15" class="st1"/></g><g id="shape80-23" transform="translate(44.5197,-154.197)"><title>Rechteck.80</title><desc>Master</desc><rect width="82.797" height="18.992" x="0" y="520.993" class="st3"/><text x="11.07" y="535.89" class="st4">Master</text></g><g id="shape81-26" transform="translate(56.4409,-140.307)"><title>Tabelle.81</title><rect width="676.898" height="46.772" x="0" y="493.213" class="st5"/></g><g id="shape82-28" transform="translate(32.3465,-192.04)"><title>Tabelle.82</title><desc>YourLocalClone</desc><rect width="732.522" height="28.346" x="0" y="511.638" class="st6"/><text x="296.23" y="531.21" class="st4">YourLocalClone</text></g><g id="shape88-31" transform="translate(56.4409,-78.6538)"><title>Tabelle.88</title><rect width="676.898" height="46.772" x="0" y="493.213" class="st5"/></g><g id="shape91-33" transform="translate(30.3465,-234.559)"><title>Rechteck.91</title><desc>Your Fork</desc><rect width="113.386" height="28.346" x="0" y="511.638" class="st8"/><text x="13.89" y="531.21" class="st4">Your Fork</text></g><g id="shape92-36" transform="translate(30.3465,-30.3465)"><title>Rechteck.92</title><desc>Your local Clone</desc><rect width="170.079" height="28.346" x="0" y="511.638" class="st9"/><text x="12.52" y="531.21" class="st4">Your local Clone</text></g><g id="shape97-39" transform="translate(32.3465,-418.811)"><title>Rechteck.97</title><path d="M0 539.98 L732.52 539.98 L732.52 449.16 L0 449.16 L0 539.98 Z" class="st10"/></g><g id="group98-41" transform="translate(274.709,-443.449)"><title>Tabelle.98</title></g><g id="shape99-42" transform="translate(161.323,-451.528)"><title>Rechteck.99</title><rect width="538" height="2.835" x="0" y="537.15" class="st1"/></g><g id="shape103-44" transform="translate(55.0236,-443.449)"><title>Rechteck.103</title><desc>Master</desc><rect width="99.213" height="18.992" x="0" y="520.993" class="st3"/><text x="19.28" y="535.89" class="st4">Master</text></g><g id="shape104-47" transform="translate(56.4409,-429.559)"><title>Tabelle.104</title><rect width="676.898" height="46.772" x="0" y="493.213" class="st5"/></g><g id="shape105-49" transform="translate(32.3465,-481.292)"><title>Tabelle.105</title><desc>SpongePowered</desc><rect width="732.522" height="28.346" x="0" y="511.638" class="st6"/><text x="291.91" y="531.21" class="st4">SpongePowered</text></g><g id="shape111-52" transform="translate(56.4409,-367.906)"><title>Tabelle.111</title><rect width="676.898" height="46.772" x="0" y="493.213" class="st5"/></g><g id="shape115-54" transform="translate(30.3465,-376.292)"><title>Rechteck.115</title><desc>Our Repository</desc><rect width="170.079" height="28.346" x="0" y="511.638" class="st11"/><text x="18.06" y="531.21" class="st4">Our Repository</text></g><g id="shape32-57" transform="translate(172.042,-295.929)"><title>Kreis.32</title><path d="M0 530.49 A9.49606 9.49606 0 1 1 18.99 530.49 A9.49606 9.49606 0 0 1 0 530.49 Z" class="st12"/></g><g id="shape100-59" transform="translate(174.042,-443.449)"><title>Kreis.100</title><path d="M0 530.49 A9.49606 9.49606 0 1 1 18.99 530.49 A9.49606 9.49606 0 0 1 0 530.49 Z" class="st12"/></g><g id="shape116-61" transform="translate(43.811,-106.283)"><title>Rechteck.116</title><desc>Feature/YourFeature</desc><rect width="205.512" height="18.992" x="0" y="520.993" class="st3"/><text x="10.76" y="535.89" class="st4">Feature/YourFeature</text></g><g id="shape124-64" transform="translate(222.986,-30.3465)"><title>Rechteck.124</title><desc>Your local Branch</desc><rect width="205.512" height="28.346" x="0" y="511.638" class="st13"/><text x="23.81" y="531.21" class="st4">Your local Branch</text></g><g id="shape119-67" transform="translate(150.819,-163.693)"><title>Dynamischer Verbinder.119</title><path d="M0 539.98 L106.44 539.98 A23.9568 23.9568 0 0 1 130.39 563.94 L130.39 563.94 A23.9568 23.9568 -180 0 0 154.35 587.9 L549.92 587.9" class="st14"/></g><g id="shape77-70" transform="translate(174.042,-154.197)"><title>Kreis.77</title><path d="M0 530.49 A9.49606 9.49606 0 1 1 18.99 530.49 A9.49606 9.49606 0 0 1 0 530.49 Z" class="st12"/></g><g id="shape133-72" transform="translate(44.5197,-89.1654)"><title>Rechteck.133</title><path d="M0 539.98 L708.66 539.98 L708.66 487.54 L0 487.54 L0 539.98 Z" class="st15"/></g></g></svg>