<svg xmlns="http://www.w3.org/2000/svg" xmlns:ev="http://www.w3.org/2001/xml-events" xmlns:xlink="http://www.w3.org/1999/xlink" width="1060.291" height="579.265" class="st15" color-interpolation-filters="sRGB" viewBox="0 0 795.215 434.449" xml:space="preserve"><style type="text/css">.st1{fill:#ededed;stroke:#ffc000;stroke-dasharray:6,6;stroke-width:2}.st2,.st3{fill:#000;stroke:#c7c8c8;stroke-width:.25}.st3{fill:#ededed;stroke:none}.st4{fill:#000;font-family:Montserrat;font-size:1.5em}.st5,.st6{fill:none;stroke:none;stroke-width:2}.st6{fill:#c9c9c9;stroke-width:.25}.st7{stroke:#000;stroke-width:2.75}.st8,.st9{stroke-width:2}.st8{fill:#ededed;stroke:#90aadb;stroke-dasharray:6,6}.st9{marker-end:url(#mrkr13-52);stroke:#96f;stroke-linecap:round;stroke-linejoin:round}.st10{fill:#96f;fill-opacity:1;stroke:#96f;stroke-opacity:1;stroke-width:.38167938931298}.st11{fill:#90aadb}.st11,.st12,.st13{stroke:none;stroke-width:2}.st12{fill:#ffc000}.st13{fill:#96f}.st14{fill:#000;stroke:#ededed;stroke-width:4.5}.st15{fill:none;fill-rule:evenodd;font-size:12px;overflow:visible;stroke-linecap:square;stroke-miterlimit:3}</style><defs id="Markers"><g id="lend13"><path d="M 3 1 L 0 0 L 3 -1 L 3 1" style="stroke:none"/></g><marker id="mrkr13-52" class="st10" markerUnits="strokeWidth" orient="auto" overflow="visible" refX="-7.86"><use transform="scale(-2.62,-2.62)" xlink:href="#lend13"/></marker></defs><g><title>Zeichenblatt-1</title><g id="shape25-1" transform="translate(28.3465,-250.197)"><title>Rechteck.25</title><path d="M0 434.45 L732.52 434.45 L732.52 278.54 L0 278.54 L0 434.45 Z" class="st1"/></g><g id="group37-3" transform="translate(270.709,-339.913)"><title>Tabelle.37</title></g><g id="shape23-4" transform="translate(157.323,-347.992)"><title>Rechteck.23</title><rect width="538" height="2.835" x="0" y="431.614" class="st2"/></g><g id="shape42-6" transform="translate(51.0236,-339.913)"><title>Rechteck</title><desc>Master</desc><rect width="99.213" height="18.992" x="0" y="415.457" class="st3"/><text x="19.28" y="430.35" class="st4">Master</text></g><g id="shape52-9" transform="translate(52.4409,-326.024)"><title>Tabelle.52</title><rect width="676.898" height="46.772" x="0" y="387.677" class="st5"/></g><g id="shape36-11" transform="translate(28.3465,-377.756)"><title>Tabelle.36</title><desc>SpongePowered</desc><rect width="732.522" height="28.346" x="0" y="406.102" class="st6"/><text x="291.91" y="425.68" class="st4">SpongePowered</text></g><g id="shape60-14" transform="translate(277.795,-286.339)"><title>Rechteck.60</title><rect width="414.693" height="2.835" x="0" y="431.614" class="st2"/></g><g id="shape65-16" transform="translate(63.7795,-278.26)"><title>Rechteck.65</title><desc>Feature 1</desc><rect width="92.126" height="18.992" x="0" y="415.457" class="st3"/><text x="6.14" y="430.35" class="st4">Feature 1</text></g><g id="shape66-19" transform="translate(52.4409,-264.37)"><title>Tabelle.66</title><rect width="676.898" height="46.772" x="0" y="387.677" class="st5"/></g><g id="shape71-21" transform="translate(150.236,-349.409)"><title>Dynamischer Verbinder</title><path d="M0 434.45 L53.12 434.45 A28.3465 28.3465 0 0 1 81.46 462.8 L81.46 467.76 A28.3465 28.3465 -180 0 0 109.81 496.1 L542.25 496.1" class="st7"/></g><g id="shape74-24" transform="translate(28.3465,-28.3465)"><title>Rechteck.74</title><path d="M0 434.45 L732.52 434.45 L732.52 278.54 L0 278.54 L0 434.45 Z" class="st8"/></g><g id="group75-26" transform="translate(270.709,-118.063)"><title>Tabelle.75</title></g><g id="shape76-27" transform="translate(157.323,-126.142)"><title>Rechteck.76</title><rect width="538" height="2.835" x="0" y="431.614" class="st2"/></g><g id="shape80-29" transform="translate(51.0236,-118.063)"><title>Rechteck.80</title><desc>Master</desc><rect width="99.213" height="18.992" x="0" y="415.457" class="st3"/><text x="19.28" y="430.35" class="st4">Master</text></g><g id="shape81-32" transform="translate(52.4409,-104.173)"><title>Tabelle.81</title><rect width="676.898" height="46.772" x="0" y="387.677" class="st5"/></g><g id="shape82-34" transform="translate(28.3465,-155.906)"><title>Tabelle.82</title><desc>YourUsername/SpongePowered</desc><rect width="732.522" height="28.346" x="0" y="406.102" class="st6"/><text x="222.29" y="425.68" class="st4">YourUsername/SpongePowered</text></g><g id="shape83-37" transform="translate(277.795,-64.4882)"><title>Rechteck.83</title><rect width="414.693" height="2.835" x="0" y="431.614" class="st2"/></g><g id="shape87-39" transform="translate(63.7795,-56.4094)"><title>Rechteck.87</title><desc>Feature 1</desc><rect width="92.126" height="18.992" x="0" y="415.457" class="st3"/><text x="6.14" y="430.35" class="st4">Feature 1</text></g><g id="shape88-42" transform="translate(52.4409,-42.5197)"><title>Tabelle.88</title><rect width="676.898" height="46.772" x="0" y="387.677" class="st5"/></g><g id="shape89-44" transform="translate(150.236,-127.559)"><title>Dynamischer Verbinder.89</title><path d="M0 434.45 L53.12 434.45 A28.3465 28.3465 0 0 1 81.46 462.8 L81.46 467.76 A28.3465 28.3465 -180 0 0 109.81 496.1 L542.25 496.1" class="st7"/></g><g id="shape90-47" transform="translate(387.521,-250.197)"><title>Dynamischer Verbinder.90</title><path d="M7.09 434.45 L7.09 484.67" class="st9"/></g><g id="shape91-53" transform="translate(192.263,-202.739)"><title>Rechteck.91</title><desc>Your Fork</desc><rect width="113.386" height="28.346" x="0" y="406.102" class="st11"/><text x="13.89" y="425.68" class="st4">Your Fork</text></g><g id="shape92-56" transform="translate(28.3465,-202.739)"><title>Rechteck.92</title><desc>Our Repository</desc><rect width="150.236" height="28.346" x="0" y="406.102" class="st12"/><text x="8.14" y="425.68" class="st4">Our Repository</text></g><g id="shape95-59" transform="translate(411.024,-202.739)"><title>Rechteck.95</title><desc>Forking</desc><rect width="99.213" height="28.346" x="0" y="406.102" class="st13"/><text x="15.62" y="425.68" class="st4">Forking</text></g><g id="shape32-62" transform="translate(170.042,-339.913)"><title>Kreis.32</title><path d="M0 424.95 A9.49606 9.49606 0 1 1 18.99 424.95 A9.49606 9.49606 0 0 1 0 424.95 Z" class="st14"/></g><g id="shape62-64" transform="translate(325.736,-278.26)"><title>Kreis.62</title><path d="M0 424.95 A9.49606 9.49606 0 1 1 18.99 424.95 A9.49606 9.49606 0 0 1 0 424.95 Z" class="st14"/></g><g id="shape63-66" transform="translate(375.083,-278.26)"><title>Kreis.63</title><path d="M0 424.95 A9.49606 9.49606 0 1 1 18.99 424.95 A9.49606 9.49606 0 0 1 0 424.95 Z" class="st14"/></g><g id="shape64-68" transform="translate(422.422,-278.26)"><title>Kreis.64</title><path d="M0 424.95 A9.49606 9.49606 0 1 1 18.99 424.95 A9.49606 9.49606 0 0 1 0 424.95 Z" class="st14"/></g><g id="shape77-70" transform="translate(170.042,-118.063)"><title>Kreis.77</title><path d="M0 424.95 A9.49606 9.49606 0 1 1 18.99 424.95 A9.49606 9.49606 0 0 1 0 424.95 Z" class="st14"/></g><g id="shape84-72" transform="translate(325.736,-56.4094)"><title>Kreis.84</title><path d="M0 424.95 A9.49606 9.49606 0 1 1 18.99 424.95 A9.49606 9.49606 0 0 1 0 424.95 Z" class="st14"/></g><g id="shape85-74" transform="translate(375.083,-56.4094)"><title>Kreis.85</title><path d="M0 424.95 A9.49606 9.49606 0 1 1 18.99 424.95 A9.49606 9.49606 0 0 1 0 424.95 Z" class="st14"/></g><g id="shape86-76" transform="translate(422.422,-56.4094)"><title>Kreis.86</title><path d="M0 424.95 A9.49606 9.49606 0 1 1 18.99 424.95 A9.49606 9.49606 0 0 1 0 424.95 Z" class="st14"/></g></g></svg>