<svg xmlns="http://www.w3.org/2000/svg" xmlns:ev="http://www.w3.org/2001/xml-events" xmlns:xlink="http://www.w3.org/1999/xlink" width="1068.403" height="591.16" class="st22" color-interpolation-filters="sRGB" viewBox="0 0 801.299 443.37" xml:space="preserve"><style type="text/css">.st1{fill:#ededed;stroke:#a8d08d;stroke-dasharray:6,6;stroke-width:2}.st2,.st3{fill:#000;stroke:#c7c8c8;stroke-width:.25}.st3{fill:#ededed;stroke:none}.st4{fill:#000;font-family:Montserrat;font-size:1.5em}.st5{fill:none;stroke-width:2}.st5,.st6,.st7{stroke:none}.st6{fill:#c9c9c9;stroke-width:.25}.st7{fill:#a8d08d}.st7,.st8,.st9{stroke-width:2}.st8{fill:#ededed;stroke:#ffc000;stroke-dasharray:6,6}.st9{fill:#ffc000;stroke:none}.st10{fill:#000;stroke:#ededed;stroke-width:4.5}.st11{visibility:visible}.st12,.st13{fill:none;stroke-dasharray:6,6}.st12{filter:url(#filter_2);stroke:#5b9bd5;stroke-opacity:.22}.st13{stroke:#ed7d31;stroke-width:2}.st14{stroke:#000;stroke-width:2.75}.st15{stroke:#96f;stroke-dasharray:6,6;stroke-linecap:round;stroke-linejoin:round;stroke-width:2}.st16,.st17{fill:#ed7d31;stroke:none;stroke-width:2}.st17{fill:#96f}.st18,.st19{stroke:#ed7d31}.st18{marker-end:url(#mrkr13-102);stroke-linecap:round;stroke-linejoin:round;stroke-width:2}.st19{fill:#ed7d31;fill-opacity:1;stroke-opacity:1;stroke-width:.44247787610619}.st20,.st21{stroke:#ed7d31;stroke-linecap:round;stroke-linejoin:round;stroke-width:2}.st21{marker-start:url(#mrkr13-114)}.st22{fill:none;fill-rule:evenodd;font-size:12px;overflow:visible;stroke-linecap:square;stroke-miterlimit:3}</style><defs id="Markers"><g id="lend13"><path d="M 3 1 L 0 0 L 3 -1 L 3 1" style="stroke:none"/></g><marker id="mrkr13-102" class="st19" markerUnits="strokeWidth" orient="auto" overflow="visible" refX="-6.78"><use transform="scale(-2.26,-2.26)" xlink:href="#lend13"/></marker><marker id="mrkr13-114" class="st19" markerUnits="strokeWidth" orient="auto" overflow="visible" refX="6.6"><use transform="scale(2.26)" xlink:href="#lend13"/></marker></defs><defs id="Filters"><filter id="filter_2"><feGaussianBlur stdDeviation="2"/></filter></defs><g><title>Zeichenblatt-1</title><g id="group37-1" transform="translate(272.709,-180.347)"><title>Tabelle.37</title></g><g id="shape74-2" transform="translate(30.3465,-79.3782)"><title>Rechteck.74</title><path d="M0 443.37 L732.52 443.37 L732.52 287.46 L0 287.46 L0 443.37 Z" class="st1"/></g><g id="group75-4" transform="translate(272.709,-169.095)"><title>Tabelle.75</title></g><g id="shape76-5" transform="translate(159.323,-177.173)"><title>Rechteck.76</title><rect width="538" height="2.835" x="0" y="440.535" class="st2"/></g><g id="shape80-7" transform="translate(53.0236,-169.095)"><title>Rechteck.80</title><desc>Master</desc><rect width="99.213" height="18.992" x="0" y="424.378" class="st3"/><text x="19.28" y="439.27" class="st4">Master</text></g><g id="shape81-10" transform="translate(54.4409,-155.205)"><title>Tabelle.81</title><rect width="676.898" height="46.772" x="0" y="396.598" class="st5"/></g><g id="shape82-12" transform="translate(30.3465,-206.937)"><title>Tabelle.82</title><desc>YourLocalClone</desc><rect width="732.522" height="28.346" x="0" y="415.024" class="st6"/><text x="296.23" y="434.6" class="st4">YourLocalClone</text></g><g id="shape83-15" transform="translate(507.944,-115.52)"><title>Rechteck.83</title><rect width="186.544" height="2.835" x="0" y="440.535" class="st2"/></g><g id="shape87-17" transform="translate(56.6929,-108.567)"><title>Rechteck.87</title><desc>Feature/YourFeature</desc><rect width="206.346" height="18.992" x="0" y="424.378" class="st3"/><text x="11.18" y="439.27" class="st4">Feature/YourFeature</text></g><g id="shape88-20" transform="translate(54.4409,-93.5514)"><title>Tabelle.88</title><rect width="676.898" height="46.772" x="0" y="396.598" class="st5"/></g><g id="shape92-22" transform="translate(30.3465,-30.3465)"><title>Rechteck.92</title><desc>Your local Clone</desc><rect width="170.079" height="28.346" x="0" y="415.024" class="st7"/><text x="12.52" y="434.6" class="st4">Your local Clone</text></g><g id="shape97-25" transform="translate(30.3465,-319.472)"><title>Rechteck.97</title><path d="M0 443.37 L732.52 443.37 L732.52 349.82 L0 349.82 L0 443.37 Z" class="st8"/></g><g id="group98-27" transform="translate(272.709,-346.835)"><title>Tabelle.98</title></g><g id="shape99-28" transform="translate(159.323,-354.913)"><title>Rechteck.99</title><rect width="538" height="2.835" x="0" y="440.535" class="st2"/></g><g id="shape103-30" transform="translate(53.0236,-346.835)"><title>Rechteck.103</title><desc>Master</desc><rect width="99.213" height="18.992" x="0" y="424.378" class="st3"/><text x="19.28" y="439.27" class="st4">Master</text></g><g id="shape104-33" transform="translate(54.4409,-332.945)"><title>Tabelle.104</title><rect width="676.898" height="46.772" x="0" y="396.598" class="st5"/></g><g id="shape105-35" transform="translate(30.3465,-384.677)"><title>Tabelle.105</title><desc>SpongePowered</desc><rect width="732.522" height="28.346" x="0" y="415.024" class="st6"/><text x="291.91" y="434.6" class="st4">SpongePowered</text></g><g id="shape115-38" transform="translate(30.3465,-265.318)"><title>Rechteck.115</title><desc>Our Repository</desc><rect width="170.079" height="28.346" x="0" y="415.024" class="st9"/><text x="18.06" y="434.6" class="st4">Our Repository</text></g><g id="shape100-41" transform="translate(172.042,-346.835)"><title>Kreis.100</title><path d="M0 433.87 A9.49606 9.49606 0 1 1 18.99 433.87 A9.49606 9.49606 0 0 1 0 433.87 Z" class="st10"/></g><g id="shape141-43" transform="translate(588.823,-346.835)"><title>Kreis.141</title><path d="M0 433.87 A9.49606 9.49606 0 1 1 18.99 433.87 A9.49606 9.49606 0 0 1 0 433.87 Z" class="st10"/></g><g id="shape142-45" transform="translate(519.454,-346.835)"><title>Kreis.142</title><path d="M0 433.87 A9.49606 9.49606 0 1 1 18.99 433.87 A9.49606 9.49606 0 0 1 0 433.87 Z" class="st10"/></g><g id="shape143-47" transform="translate(470.416,-346.835)"><title>Kreis.143</title><path d="M0 433.87 A9.49606 9.49606 0 1 1 18.99 433.87 A9.49606 9.49606 0 0 1 0 433.87 Z" class="st10"/></g><g id="shape144-49" transform="translate(463.256,-340.74)"><title>Quadrat.144</title><g id="shadow144-50" class="st11"><path d="M0 443.37 L31.18 443.37 L31.18 412.19 L0 412.19 L0 443.37 Z" class="st12" transform="matrix(1,0,0,1,0.345598,1.97279)"/></g><path d="M0 443.37 L31.18 443.37 L31.18 412.19 L0 412.19 L0 443.37 Z" class="st13"/></g><g id="shape145-54" transform="translate(513.429,-340.74)"><title>Quadrat.145</title><g id="shadow145-55" class="st11"><path d="M0 443.37 L31.18 443.37 L31.18 412.19 L0 412.19 L0 443.37 Z" class="st12" transform="matrix(1,0,0,1,0.345598,1.97279)"/></g><path d="M0 443.37 L31.18 443.37 L31.18 412.19 L0 412.19 L0 443.37 Z" class="st13"/></g><g id="shape146-59" transform="translate(582.728,-340.74)"><title>Quadrat.146</title><g id="shadow146-60" class="st11"><path d="M0 443.37 L31.18 443.37 L31.18 412.19 L0 412.19 L0 443.37 Z" class="st12" transform="matrix(1,0,0,1,0.345598,1.97279)"/></g><path d="M0 443.37 L31.18 443.37 L31.18 412.19 L0 412.19 L0 443.37 Z" class="st13"/></g><g id="shape149-64" transform="translate(607.591,-170.079)"><title>Kreis.149</title><path d="M0 433.87 A9.49606 9.49606 0 1 1 18.99 433.87 A9.49606 9.49606 0 0 1 0 433.87 Z" class="st10"/></g><g id="shape150-66" transform="translate(538.223,-170.079)"><title>Kreis.150</title><path d="M0 433.87 A9.49606 9.49606 0 1 1 18.99 433.87 A9.49606 9.49606 0 0 1 0 433.87 Z" class="st10"/></g><g id="shape151-68" transform="translate(489.185,-170.079)"><title>Kreis.151</title><path d="M0 433.87 A9.49606 9.49606 0 1 1 18.99 433.87 A9.49606 9.49606 0 0 1 0 433.87 Z" class="st10"/></g><g id="shape152-70" transform="translate(481.89,-164.409)"><title>Quadrat.152</title><g id="shadow152-71" class="st11"><path d="M0 443.37 L31.18 443.37 L31.18 412.19 L0 412.19 L0 443.37 Z" class="st12" transform="matrix(1,0,0,1,0.345598,1.97279)"/></g><path d="M0 443.37 L31.18 443.37 L31.18 412.19 L0 412.19 L0 443.37 Z" class="st13"/></g><g id="shape153-75" transform="translate(532.063,-164.409)"><title>Quadrat.153</title><g id="shadow153-76" class="st11"><path d="M0 443.37 L31.18 443.37 L31.18 412.19 L0 412.19 L0 443.37 Z" class="st12" transform="matrix(1,0,0,1,0.345598,1.97279)"/></g><path d="M0 443.37 L31.18 443.37 L31.18 412.19 L0 412.19 L0 443.37 Z" class="st13"/></g><g id="shape154-80" transform="translate(601.362,-164.409)"><title>Quadrat.154</title><g id="shadow154-81" class="st11"><path d="M0 443.37 L31.18 443.37 L31.18 412.19 L0 412.19 L0 443.37 Z" class="st12" transform="matrix(1,0,0,1,0.345598,1.97279)"/></g><path d="M0 443.37 L31.18 443.37 L31.18 412.19 L0 412.19 L0 443.37 Z" class="st13"/></g><g id="shape157-85" transform="translate(159.323,-178.591)"><title>Dynamischer Verbinder.157</title><path d="M0 443.37 L95.8 443.37 A28.3465 28.3465 0 0 1 124.14 471.72 L124.14 476.68 A28.3465 28.3465 -180 0 0 152.49 505.02 L535.17 505.02" class="st14"/></g><g id="shape158-88" transform="translate(702.53,70.2731) rotate(89.6649)"><title>Tabelle.158</title><path d="M0 443.37 L276.96 443.37" class="st15"/></g><g id="shape159-91" transform="translate(446.457,-265.318)"><title>Rechteck.159</title><desc>Update local Master branch</desc><rect width="284.882" height="28.346" x="0" y="415.024" class="st16"/><text x="18.49" y="434.6" class="st4">Update local Master branch</text></g><g id="shape160-94" transform="translate(276.135,-265.318)"><title>Rechteck.160</title><desc>Time of Fork</desc><rect width="149.062" height="28.346" x="0" y="415.024" class="st17"/><text x="19.03" y="434.6" class="st4">Time of Fork</text></g><g id="shape161-97" transform="translate(598.319,-340.74)"><title>Dynamischer Verbinder.161</title><path d="M0 443.37 L0 479.16 L154.63 479.16 L154.63 532.31 L18.63 532.31 L18.63 574.96" class="st18"/></g><g id="shape162-103" transform="translate(529.02,-340.74)"><title>Dynamischer Verbinder.162</title><path d="M0 443.37 L0 479.07 L70.51 479.07" class="st20"/></g><g id="shape163-106" transform="translate(478.847,-340.74)"><title>Dynamischer Verbinder.163</title><path d="M0 443.37 L0 479.07 L51.23 479.07" class="st20"/></g><g id="shape164-109" transform="translate(497.48,-195.591)"><title>Dynamischer Verbinder.164</title><path d="M0 430.17 L0 429.81 L0 387.16 L50.85 387.16" class="st21"/></g><g id="shape165-115" transform="translate(547.654,-195.591)"><title>Dynamischer Verbinder.165</title><path d="M0 430.17 L0 429.81 L0 387.16 L69.77 387.16" class="st21"/></g><g id="shape84-120" transform="translate(337.865,-107.441)"><title>Kreis.84</title><path d="M0 433.87 A9.49606 9.49606 0 1 1 18.99 433.87 A9.49606 9.49606 0 0 1 0 433.87 Z" class="st10"/></g><g id="shape85-122" transform="translate(387.212,-107.441)"><title>Kreis.85</title><path d="M0 433.87 A9.49606 9.49606 0 1 1 18.99 433.87 A9.49606 9.49606 0 0 1 0 433.87 Z" class="st10"/></g><g id="shape86-124" transform="translate(434.551,-107.441)"><title>Kreis.86</title><path d="M0 433.87 A9.49606 9.49606 0 1 1 18.99 433.87 A9.49606 9.49606 0 0 1 0 433.87 Z" class="st10"/></g><g id="shape77-126" transform="translate(172.042,-169.095)"><title>Kreis.77</title><path d="M0 433.87 A9.49606 9.49606 0 1 1 18.99 433.87 A9.49606 9.49606 0 0 1 0 433.87 Z" class="st10"/></g></g></svg>