<svg xmlns="http://www.w3.org/2000/svg" xmlns:ev="http://www.w3.org/2001/xml-events" xmlns:xlink="http://www.w3.org/1999/xlink" width="1057.622" height="649.974" class="st15" color-interpolation-filters="sRGB" viewBox="0 0 793.215 487.481" xml:space="preserve"><style type="text/css">.st1{fill:#ededed;stroke:#90aadb;stroke-dasharray:6,6;stroke-width:2}.st2,.st3{fill:#000;stroke:#c7c8c8;stroke-width:.25}.st3{fill:#ededed;stroke:none}.st4{fill:#000;font-family:Montserrat;font-size:1.5em}.st5,.st6{fill:none;stroke:none;stroke-width:2}.st6{fill:#c9c9c9;stroke-width:.25}.st7{fill:#ededed;stroke:#a8d08d;stroke-dasharray:6,6;stroke-width:2}.st8,.st9{fill:#90aadb;stroke:none;stroke-width:2}.st9{fill:#a8d08d}.st10{stroke:#000;stroke-width:2.75}.st11{fill:#000;stroke:#ededed;stroke-width:4.5}.st12{marker-end:url(#mrkr13-80);stroke:#96f;stroke-linecap:round;stroke-linejoin:round;stroke-width:2}.st13{fill:#96f;fill-opacity:1;stroke:#96f;stroke-opacity:1;stroke-width:.44247787610619}.st14{fill:#96f;stroke:none;stroke-width:2}.st15{fill:none;fill-rule:evenodd;font-size:12px;overflow:visible;stroke-linecap:square;stroke-miterlimit:3}</style><defs id="Markers"><g id="lend13"><path d="M 3 1 L 0 0 L 3 -1 L 3 1" style="stroke:none"/></g><marker id="mrkr13-80" class="st13" markerUnits="strokeWidth" orient="auto" overflow="visible" refX="-6.78"><use transform="scale(-2.26,-2.26)" xlink:href="#lend13"/></marker></defs><g><title>Zeichenblatt-1</title><g id="shape25-1" transform="translate(30.3465,-301.229)"><title>Rechteck.25</title><path d="M0 487.48 L732.52 487.48 L732.52 331.58 L0 331.58 L0 487.48 Z" class="st1"/></g><g id="group37-3" transform="translate(272.709,-390.945)"><title>Tabelle.37</title></g><g id="shape23-4" transform="translate(159.323,-399.024)"><title>Rechteck.23</title><rect width="538" height="2.835" x="0" y="484.646" class="st2"/></g><g id="shape42-6" transform="translate(53.0236,-390.945)"><title>Rechteck</title><desc>Master</desc><rect width="99.213" height="18.992" x="0" y="468.488" class="st3"/><text x="19.28" y="483.38" class="st4">Master</text></g><g id="shape52-9" transform="translate(54.4409,-377.055)"><title>Tabelle.52</title><rect width="676.898" height="46.772" x="0" y="440.709" class="st5"/></g><g id="shape36-11" transform="translate(30.3465,-428.788)"><title>Tabelle.36</title><desc>YourUsername/SpongePowered</desc><rect width="732.522" height="28.346" x="0" y="459.134" class="st6"/><text x="243.19" y="478.71" class="st4">YourUsername/SpongePowered</text></g><g id="shape60-14" transform="translate(327.736,-337.37)"><title>Rechteck.60</title><rect width="366.752" height="2.835" x="0" y="484.646" class="st2"/></g><g id="shape65-16" transform="translate(53.0236,-329.292)"><title>Rechteck.65</title><desc>Feature/YourFeature</desc><rect width="206.346" height="18.992" x="0" y="468.488" class="st3"/><text x="11.18" y="483.38" class="st4">Feature/YourFeature</text></g><g id="shape66-19" transform="translate(54.4409,-315.402)"><title>Tabelle.66</title><rect width="676.898" height="46.772" x="0" y="440.709" class="st5"/></g><g id="shape74-21" transform="translate(30.3465,-79.3782)"><title>Rechteck.74</title><path d="M0 487.48 L732.52 487.48 L732.52 331.58 L0 331.58 L0 487.48 Z" class="st7"/></g><g id="group75-23" transform="translate(272.709,-169.095)"><title>Tabelle.75</title></g><g id="shape76-24" transform="translate(159.323,-177.173)"><title>Rechteck.76</title><rect width="538" height="2.835" x="0" y="484.646" class="st2"/></g><g id="shape80-26" transform="translate(53.0236,-169.095)"><title>Rechteck.80</title><desc>Master</desc><rect width="99.213" height="18.992" x="0" y="468.488" class="st3"/><text x="19.28" y="483.38" class="st4">Master</text></g><g id="shape81-29" transform="translate(54.4409,-155.205)"><title>Tabelle.81</title><rect width="676.898" height="46.772" x="0" y="440.709" class="st5"/></g><g id="shape82-31" transform="translate(30.3465,-206.937)"><title>Tabelle.82</title><desc>YourLocalClone</desc><rect width="732.522" height="28.346" x="0" y="459.134" class="st6"/><text x="296.23" y="478.71" class="st4">YourLocalClone</text></g><g id="shape83-34" transform="translate(507.944,-115.52)"><title>Rechteck.83</title><rect width="186.544" height="2.835" x="0" y="484.646" class="st2"/></g><g id="shape87-36" transform="translate(56.6929,-108.567)"><title>Rechteck.87</title><desc>Feature/YourFeature</desc><rect width="206.346" height="18.992" x="0" y="468.488" class="st3"/><text x="11.18" y="483.38" class="st4">Feature/YourFeature</text></g><g id="shape88-39" transform="translate(54.4409,-93.5514)"><title>Tabelle.88</title><rect width="676.898" height="46.772" x="0" y="440.709" class="st5"/></g><g id="shape91-41" transform="translate(30.3465,-253.77)"><title>Rechteck.91</title><desc>Your Fork</desc><rect width="113.386" height="28.346" x="0" y="459.134" class="st8"/><text x="13.89" y="478.71" class="st4">Your Fork</text></g><g id="shape92-44" transform="translate(30.3465,-30.3465)"><title>Rechteck.92</title><desc>Your local Clone</desc><rect width="170.079" height="28.346" x="0" y="459.134" class="st9"/><text x="12.52" y="478.71" class="st4">Your local Clone</text></g><g id="shape71-47" transform="translate(152.236,-400.441)"><title>Dynamischer Verbinder</title><path d="M0 487.48 L102.88 487.48 A28.3465 28.3465 0 0 1 131.23 515.83 L131.23 520.79 A28.3465 28.3465 -180 0 0 159.57 549.13 L542.25 549.13" class="st10"/></g><g id="shape64-50" transform="translate(424.422,-329.292)"><title>Kreis.64</title><path d="M0 477.98 A9.49606 9.49606 0 1 1 18.99 477.98 A9.49606 9.49606 0 0 1 0 477.98 Z" class="st11"/></g><g id="shape63-52" transform="translate(377.083,-329.292)"><title>Kreis.63</title><path d="M0 477.98 A9.49606 9.49606 0 1 1 18.99 477.98 A9.49606 9.49606 0 0 1 0 477.98 Z" class="st11"/></g><g id="shape62-54" transform="translate(327.736,-329.292)"><title>Kreis.62</title><path d="M0 477.98 A9.49606 9.49606 0 1 1 18.99 477.98 A9.49606 9.49606 0 0 1 0 477.98 Z" class="st11"/></g><g id="shape32-56" transform="translate(172.042,-390.945)"><title>Kreis.32</title><path d="M0 477.98 A9.49606 9.49606 0 1 1 18.99 477.98 A9.49606 9.49606 0 0 1 0 477.98 Z" class="st11"/></g><g id="shape157-58" transform="translate(159.323,-178.591)"><title>Dynamischer Verbinder.157</title><path d="M0 487.48 L294.22 487.48 A28.3465 28.3465 0 0 1 322.57 515.83 L322.57 520.79 A28.3465 28.3465 -180 0 0 350.91 549.13 L535.17 549.13" class="st10"/></g><g id="shape84-61" transform="translate(537.437,-107.441)"><title>Kreis.84</title><path d="M0 477.98 A9.49606 9.49606 0 1 1 18.99 477.98 A9.49606 9.49606 0 0 1 0 477.98 Z" class="st11"/></g><g id="shape85-63" transform="translate(586.783,-107.441)"><title>Kreis.85</title><path d="M0 477.98 A9.49606 9.49606 0 1 1 18.99 477.98 A9.49606 9.49606 0 0 1 0 477.98 Z" class="st11"/></g><g id="shape86-65" transform="translate(634.123,-107.441)"><title>Kreis.86</title><path d="M0 477.98 A9.49606 9.49606 0 1 1 18.99 477.98 A9.49606 9.49606 0 0 1 0 477.98 Z" class="st11"/></g><g id="shape77-67" transform="translate(172.042,-169.095)"><title>Kreis.77</title><path d="M0 477.98 A9.49606 9.49606 0 1 1 18.99 477.98 A9.49606 9.49606 0 0 1 0 477.98 Z" class="st11"/></g><g id="shape149-69" transform="translate(401.871,-170.079)"><title>Kreis.149</title><path d="M0 477.98 A9.49606 9.49606 0 1 1 18.99 477.98 A9.49606 9.49606 0 0 1 0 477.98 Z" class="st11"/></g><g id="shape150-71" transform="translate(332.503,-170.079)"><title>Kreis.150</title><path d="M0 477.98 A9.49606 9.49606 0 1 1 18.99 477.98 A9.49606 9.49606 0 0 1 0 477.98 Z" class="st11"/></g><g id="shape151-73" transform="translate(283.465,-170.079)"><title>Kreis.151</title><path d="M0 477.98 A9.49606 9.49606 0 1 1 18.99 477.98 A9.49606 9.49606 0 0 1 0 477.98 Z" class="st11"/></g><g id="shape158-75" transform="translate(389.521,-235.284)"><title>Dynamischer Verbinder.158</title><path d="M7.09 487.48 L7.09 435.1" class="st12"/></g><g id="shape159-81" transform="translate(411.024,-253.77)"><title>Rechteck.159</title><desc>Push changes</desc><rect width="141.732" height="28.346" x="0" y="459.134" class="st14"/><text x="8.74" y="478.71" class="st4">Push changes</text></g></g></svg>