<svg xmlns="http://www.w3.org/2000/svg" xmlns:ev="http://www.w3.org/2001/xml-events" xmlns:xlink="http://www.w3.org/1999/xlink" width="1365.965" height="594.718" class="st17" color-interpolation-filters="sRGB" viewBox="0 0 1024.47 446.039" xml:space="preserve"><style type="text/css">.st1{fill:#ededed;stroke:none}.st1,.st2{stroke-width:2}.st2,.st3{stroke:none}.st2{fill:none}.st3{fill:#90aadb;stroke-width:.25}.st4{fill:#000;font-family:Montserrat;font-size:1.5em}.st5{fill:#a8d08d;stroke-width:.25}.st5,.st6,.st7{stroke:none}.st6{stroke-width:.25;fill:#c9c9c9}.st7{fill:#96f}.st7,.st8{stroke-width:2}.st8,.st9{stroke:none}.st8{fill:#3cc}.st9{fill:#ffc000;stroke-width:.25}.st10{font-size:1em}.st11{fill:#c9c9c9;stroke:none;stroke-width:2}.st12,.st13{stroke:#5b9bd5}.st12{marker-end:url(#mrkr13-42);marker-start:url(#mrkr13-40);stroke-linecap:round;stroke-linejoin:round;stroke-width:2}.st13{fill:#5b9bd5;fill-opacity:1;stroke-opacity:1;stroke-width:.44247787610619}.st14{stroke:#c00000}.st14,.st15,.st16{fill:none;stroke-dasharray:14,10;stroke-width:2}.st15{stroke:#c55a11}.st16{stroke:#002060}.st17{fill:none;fill-rule:evenodd;font-size:12px;overflow:visible;stroke-linecap:square;stroke-miterlimit:3}</style><defs id="Markers"><g id="lend13"><path d="M 3 1 L 0 0 L 3 -1 L 3 1" style="stroke:none"/></g><marker id="mrkr13-40" class="st13" markerUnits="strokeWidth" orient="auto" overflow="visible" refX="6.6"><use transform="scale(2.26)" xlink:href="#lend13"/></marker><marker id="mrkr13-42" class="st13" markerUnits="strokeWidth" orient="auto" overflow="visible" refX="-6.78"><use transform="scale(-2.26,-2.26)" xlink:href="#lend13"/></marker></defs><g><title>Zeichenblatt-1</title><g id="shape25-1" transform="translate(30.3465,-75.5347)"><title>Rechteck.25</title><rect width="538.583" height="340.157" x="0" y="105.881" class="st1"/></g><g id="shape52-3" transform="translate(214.346,-306.621)"><title>Tabelle.52</title><rect width="676.898" height="46.772" x="0" y="399.267" class="st2"/></g><g id="shape36-5" transform="translate(172.079,-245.613)"><title>Tabelle.36</title><desc>SpongeForge code</desc><rect width="212.598" height="33.684" x="0" y="412.355" class="st3"/><text x="22.09" y="434.6" class="st4">SpongeForge code</text></g><g id="shape160-8" transform="translate(30.3465,-75.5347)"><title>Tabelle.160</title><desc>Mojang Vanilla Minecraft Server</desc><rect width="538.583" height="33.684" x="0" y="412.355" class="st5"/><text x="127.42" y="434.6" class="st4">Mojang Vanilla Minecraft Server</text></g><g id="shape162-11" transform="translate(30.3465,-211.93)"><title>Tabelle.162</title><desc>Forge mod</desc><rect width="121.307" height="33.684" x="0" y="412.355" class="st6"/><text x="11.78" y="434.6" class="st4">Forge mod</text></g><g id="shape163-14" transform="translate(172.079,-211.93)"><title>Rechteck.163</title><desc>Mixin</desc><rect width="396.85" height="33.684" x="0" y="412.355" class="st7"/><text x="174.04" y="434.6" class="st4">Mixin</text></g><g id="shape164-17" transform="translate(30.3465,-143.732)"><title>Tabelle.164</title><desc>Forge</desc><rect width="354.331" height="33.684" x="0" y="412.355" class="st3"/><text x="151.77" y="434.6" class="st4">Forge</text></g><g id="shape166-20" transform="translate(384.677,-245.613)"><title>Rechteck.166</title><desc>SpongeCommon</desc><rect width="184.252" height="33.684" x="0" y="412.355" class="st8"/><text x="15.5" y="434.6" class="st4">SpongeCommon</text></g><g id="shape170-23" transform="translate(30.3465,-318.063)"><title>Tabelle.170</title><desc>Sponge Plugin with Forge hooks</desc><rect width="255.118" height="46.772" x="0" y="399.267" class="st9"/><text x="11.68" y="417.25" class="st4">Sponge Plugin with Forge <tspan x="100.7" class="st10" dy="1.2em">hooks</tspan></text></g><g id="shape191-27" transform="translate(30.3465,-387.346)"><title>Rechteck.191</title><desc>SpongeForge Server</desc><rect width="538.583" height="28.346" x="0" y="417.692" class="st11"/><text x="179.21" y="437.27" class="st4">SpongeForge Server</text></g><g id="shape192-30" transform="translate(303.89,-316.48)"><title>Tabelle.192</title><desc>Sponge Plugin</desc><rect width="123.307" height="46.772" x="0" y="399.267" class="st9"/><text x="27.29" y="417.25" class="st4">Sponge <tspan x="32.78" class="st10" dy="1.2em">Plugin</tspan></text></g><g id="shape193-34" transform="translate(363.417,-211.93)"><title>Dynamischer Verbinder</title><path d="M7.09 459.24 L7.09 459.6 L7.09 466.99" class="st12"/></g><g id="shape194-43" transform="translate(83.9134,-211.93)"><title>Dynamischer Verbinder.194</title><path d="M7.09 459.24 L7.09 459.6 L7.09 466.99" class="st12"/></g><g id="shape195-50" transform="translate(168.953,-318.063)"><title>Dynamischer Verbinder.195</title><path d="M-7.09 459.24 L-7.09 459.6 L-7.09 573.13" class="st12"/></g><g id="shape200-57" transform="translate(200.425,-143.732)"><title>Dynamischer Verbinder.200</title><path d="M7.09 459.24 L7.09 459.6 L7.09 466.99" class="st12"/></g><g id="shape202-64" transform="translate(30.3465,-30.3465)"><title>Rechteck.202</title><desc>SpongeForge Coremod</desc><path d="M0 446.04 L255.12 446.04 L255.12 412.36 L0 412.36 L0 446.04 Z" class="st14"/><text x="23.59" y="434.6" class="st4">SpongeForge Coremod</text></g><g id="shape204-67" transform="translate(172.079,-211.93)"><title>Rechteck.204</title><path d="M0 446.04 L396.85 446.04 L396.85 378.67 L0 378.67 L0 446.04 Z" class="st15"/></g><g id="shape205-69" transform="translate(445.622,-316.48)"><title>Tabelle.205</title><desc>Sponge Plugin</desc><rect width="123.307" height="46.772" x="0" y="399.267" class="st9"/><text x="27.29" y="417.25" class="st4">Sponge <tspan x="32.78" class="st10" dy="1.2em">Plugin</tspan></text></g><g id="shape206-73" transform="translate(363.417,-316.48)"><title>Dynamischer Verbinder.206</title><path d="M7.09 459.24 L7.09 459.6 L7.09 469.66" class="st12"/></g><g id="shape207-80" transform="translate(469.717,-316.48)"><title>Dynamischer Verbinder.207</title><path d="M7.09 459.24 L7.09 459.6 L7.09 469.66" class="st12"/></g><g id="shape208-87" transform="translate(221.685,-318.063)"><title>Dynamischer Verbinder.208</title><path d="M7.09 459.24 L7.09 459.6 L7.09 471.24" class="st12"/></g><g id="shape211-94" transform="translate(597.276,-75.5347)"><title>Rechteck.211</title><rect width="396.85" height="340.157" x="0" y="105.881" class="st1"/></g><g id="shape212-96" transform="translate(597.276,-245.613)"><title>Tabelle.212</title><desc>SpongeVanilla code</desc><rect width="212.598" height="33.684" x="0" y="412.355" class="st3"/><text x="16.89" y="434.6" class="st4">SpongeVanilla code</text></g><g id="shape213-99" transform="translate(597.276,-75.5347)"><title>Tabelle.213</title><desc>Mojang Vanilla Minecraft Server</desc><rect width="396.85" height="33.684" x="0" y="412.355" class="st5"/><text x="56.55" y="434.6" class="st4">Mojang Vanilla Minecraft Server</text></g><g id="shape215-102" transform="translate(597.276,-211.93)"><title>Rechteck.215</title><desc>Mixin</desc><rect width="396.85" height="33.684" x="0" y="412.355" class="st7"/><text x="174.04" y="434.6" class="st4">Mixin</text></g><g id="shape217-105" transform="translate(809.874,-245.613)"><title>Rechteck.217</title><desc>SpongeCommon</desc><rect width="184.252" height="33.684" x="0" y="412.355" class="st8"/><text x="15.5" y="434.6" class="st4">SpongeCommon</text></g><g id="shape219-108" transform="translate(597.276,-387.346)"><title>Rechteck.219</title><desc>SpongeVanilla Server</desc><rect width="396.85" height="28.346" x="0" y="417.692" class="st11"/><text x="103.15" y="437.27" class="st4">SpongeVanilla Server</text></g><g id="shape220-111" transform="translate(597.276,-316.48)"><title>Tabelle.220</title><desc>Sponge Plugin</desc><rect width="123.307" height="46.772" x="0" y="399.267" class="st9"/><text x="27.29" y="417.25" class="st4">Sponge <tspan x="32.78" class="st10" dy="1.2em">Plugin</tspan></text></g><g id="shape221-115" transform="translate(788.614,-211.93)"><title>Dynamischer Verbinder.221</title><path d="M7.09 459.24 L7.09 459.6 L7.09 535.19" class="st12"/></g><g id="shape225-122" transform="translate(597.276,-30.3465)"><title>Rechteck.225</title><desc>SpongeVanilla</desc><path d="M0 446.04 L212.6 446.04 L212.6 412.36 L0 412.36 L0 446.04 Z" class="st16"/><text x="41.35" y="434.6" class="st4">SpongeVanilla</text></g><g id="shape226-125" transform="translate(597.276,-211.93)"><title>Rechteck.226</title><path d="M0 446.04 L396.85 446.04 L396.85 378.67 L0 378.67 L0 446.04 Z" class="st16"/></g><g id="shape227-127" transform="translate(734.047,-316.48)"><title>Tabelle.227</title><desc>Sponge Plugin</desc><rect width="123.307" height="46.772" x="0" y="399.267" class="st9"/><text x="27.29" y="417.25" class="st4">Sponge <tspan x="32.78" class="st10" dy="1.2em">Plugin</tspan></text></g><g id="shape232-131" transform="translate(870.819,-316.48)"><title>Tabelle.232</title><desc>Sponge Plugin</desc><rect width="123.307" height="46.772" x="0" y="399.267" class="st9"/><text x="27.29" y="417.25" class="st4">Sponge <tspan x="32.78" class="st10" dy="1.2em">Plugin</tspan></text></g><g id="shape233-135" transform="translate(471.134,-211.93)"><title>Dynamischer Verbinder.233</title><path d="M7.09 459.24 L7.09 459.6 L7.09 535.19" class="st12"/></g><g id="shape234-142" transform="translate(646.882,-316.48)"><title>Dynamischer Verbinder.234</title><path d="M7.09 459.24 L7.09 459.6 L7.09 469.66" class="st12"/></g><g id="shape235-149" transform="translate(788.614,-316.48)"><title>Dynamischer Verbinder.235</title><path d="M7.09 459.24 L7.09 459.6 L7.09 469.66" class="st12"/></g><g id="shape236-156" transform="translate(930.346,-316.48)"><title>Dynamischer Verbinder.236</title><path d="M7.09 459.24 L7.09 459.6 L7.09 469.66" class="st12"/></g></g></svg>