<svg xmlns="http://www.w3.org/2000/svg" xmlns:ev="http://www.w3.org/2001/xml-events" xmlns:xlink="http://www.w3.org/1999/xlink" width="1060.291" height="553.365" class="st17" color-interpolation-filters="sRGB" viewBox="0 0 795.215 415.024" xml:space="preserve"><style type="text/css">.st1,.st2,.st3{fill:#ededed;stroke:none;stroke-width:2}.st2,.st3{fill:#000;stroke-width:.25}.st3{fill:#ededed}.st4{fill:#000;font-family:Montserrat;font-size:1.5em}.st5,.st6,.st7{fill:none;stroke:none;stroke-width:2}.st6,.st7{fill:#c9c9c9;stroke-width:.25}.st7{fill:#000;stroke:#c7c8c8}.st8{stroke:#000;stroke-width:2.75}.st9{fill:#3cc;stroke:none;stroke-width:2}.st10{fill:#000;stroke:#ededed;stroke-width:4.5}.st11{fill:none;stroke:#96f;stroke-dasharray:14,10}.st11,.st12,.st13{stroke-width:2}.st12{fill:none;stroke:#3cc;stroke-dasharray:14,10}.st13{fill:#96f;stroke:none}.st14{marker-end:url(#mrkr13-76);stroke:#fc0;stroke-width:2.75}.st15{fill:#fc0;fill-opacity:1;stroke:#fc0;stroke-opacity:1;stroke-width:.52182163187856}.st16{fill:#fc0;stroke:none;stroke-width:2}.st17{fill:none;fill-rule:evenodd;font-size:12px;overflow:visible;stroke-linecap:square;stroke-miterlimit:3}</style><defs id="Markers"><g id="lend13"><path d="M 3 1 L 0 0 L 3 -1 L 3 1" style="stroke:none"/></g><marker id="mrkr13-76" class="st15" markerUnits="strokeWidth" orient="auto" overflow="visible" refX="-5.749"><use transform="scale(-1.9163636363636,-1.9163636363636)" xlink:href="#lend13"/></marker></defs><g><title>Zeichenblatt-1</title><g id="shape97-1" transform="translate(30.3465,-77.1181)"><title>Rechteck.97</title><rect width="732.522" height="307.559" x="0" y="107.465" class="st1"/></g><g id="group98-3" transform="translate(272.709,-302.654)"><title>Tabelle.98</title></g><g id="shape99-4" transform="translate(159.323,-310.733)"><title>Rechteck.99</title><rect width="538" height="2.835" x="0" y="412.189" class="st2"/></g><g id="shape103-6" transform="translate(53.0236,-302.654)"><title>Rechteck.103</title><desc>Master</desc><rect width="99.213" height="18.992" x="0" y="396.032" class="st3"/><text x="19.28" y="410.93" class="st4">Master</text></g><g id="shape104-9" transform="translate(54.4409,-288.764)"><title>Tabelle.104</title><rect width="676.898" height="46.772" x="0" y="368.252" class="st5"/></g><g id="shape105-11" transform="translate(30.3465,-356.331)"><title>Tabelle.105</title><desc>SpongeDocs</desc><rect width="732.522" height="28.346" x="0" y="386.677" class="st6"/><text x="309.99" y="406.25" class="st4">SpongeDocs</text></g><g id="shape106-14" transform="translate(327.736,-249.079)"><title>Rechteck.106</title><rect width="196.673" height="2.835" x="0" y="412.189" class="st7"/></g><g id="shape110-16" transform="translate(61.7795,-241)"><title>Rechteck.110</title><desc>Release/4.0.0</desc><rect width="136.646" height="18.992" x="0" y="396.032" class="st3"/><text x="9.05" y="410.93" class="st4">Release/4.0.0</text></g><g id="shape111-19" transform="translate(54.4409,-227.11)"><title>Tabelle.111</title><rect width="676.898" height="46.772" x="0" y="368.252" class="st5"/></g><g id="shape112-21" transform="translate(152.236,-312.15)"><title>Dynamischer Verbinder.112</title><path d="M0 415.02 L124.14 415.02 A28.3465 28.3465 0 0 1 152.49 443.37 L152.49 448.33 A28.3465 28.3465 -180 0 0 180.83 476.68 L372.17 476.68" class="st8"/></g><g id="shape114-24" transform="translate(30.3465,-30.3465)"><title>Rechteck.114</title><desc>Commits targeting 4.0.0 release</desc><rect width="295.638" height="28.346" x="0" y="386.677" class="st9"/><text x="4.92" y="406.25" class="st4">Commits targeting 4.0.0 release</text></g><g id="shape100-27" transform="translate(172.042,-302.654)"><title>Kreis.100</title><path d="M0 405.53 A9.49606 9.49606 0 1 1 18.99 405.53 A9.49606 9.49606 0 0 1 0 405.53 Z" class="st10"/></g><g id="shape117-29" transform="translate(155.906,-317.811)"><title>Rechteck.117</title><desc>3.0.0</desc><rect width="54.978" height="26.937" x="0" y="388.086" class="st5"/><text x="6.28" y="406.96" class="st4">3.0.0</text></g><g id="shape118-32" transform="translate(155.906,-302.654)"><title>Rechteck.118</title><path d="M0 415.02 L54.98 415.02 L54.98 376.02 L0 376.02 L0 415.02 Z" class="st11"/></g><g id="shape119-34" transform="translate(568.892,-303.638)"><title>Kreis.119</title><path d="M0 405.53 A9.49606 9.49606 0 1 1 18.99 405.53 A9.49606 9.49606 0 0 1 0 405.53 Z" class="st10"/></g><g id="shape120-36" transform="translate(552.756,-318.795)"><title>Rechteck.120</title><desc>4.0.0</desc><rect width="54.978" height="26.937" x="0" y="388.086" class="st5"/><text x="5.74" y="406.96" class="st4">4.0.0</text></g><g id="shape121-39" transform="translate(552.756,-303.638)"><title>Rechteck.121</title><path d="M0 415.02 L54.98 415.02 L54.98 376.02 L0 376.02 L0 415.02 Z" class="st11"/></g><g id="shape123-41" transform="translate(524.409,-250.496)"><title>Dynamischer Verbinder.123</title><path d="M0 415.02 L70.87 415.02 A28.3465 28.3465 -180 0 0 99.21 386.68 L99.21 381.72 A28.3465 28.3465 0 0 1 127.56 353.37 L172.91 353.37" class="st8"/></g><g id="shape124-44" transform="translate(356.874,-166.75)"><title>Rechteck.124</title><path d="M0 415.02 L39.73 415.02 L39.73 376.02 L0 376.02 L0 415.02 Z" class="st12"/></g><g id="shape127-46" transform="translate(334.795,-30.3465)"><title>Rechteck.127</title><desc>Targeted API version</desc><rect width="196.673" height="28.346" x="0" y="386.677" class="st13"/><text x="6.16" y="406.25" class="st4">Targeted API version</text></g><g id="shape128-49" transform="translate(56.6929,-176.756)"><title>Rechteck.128</title><desc>Feature/foo</desc><rect width="136.646" height="18.992" x="0" y="396.032" class="st3"/><text x="16.89" y="410.93" class="st4">Feature/foo</text></g><g id="shape129-52" transform="translate(152.236,-312.15)"><title>Dynamischer Verbinder.129</title><path d="M0 415.02 L88.71 415.02 A28.3465 28.3465 0 0 1 117.06 443.37 L117.06 512.58 A28.3465 28.3465 -180 0 0 145.4 540.92 L323.98 540.92" class="st8"/></g><g id="shape130-55" transform="translate(56.6929,-110.567)"><title>Rechteck.130</title><desc>Feature/bar</desc><rect width="136.646" height="18.992" x="0" y="396.032" class="st3"/><text x="16.29" y="410.93" class="st4">Feature/bar</text></g><g id="shape131-58" transform="translate(152.236,-312.15)"><title>Dynamischer Verbinder.131</title><path d="M0 415.02 L60.75 415.02 A28.3465 28.3465 0 0 1 89.09 443.37 L89.09 583.44 A28.3465 28.3465 -180 0 0 117.44 611.79 L323.98 611.79" class="st8"/></g><g id="shape107-61" transform="translate(368.504,-177.165)"><title>Kreis.107</title><path d="M0 405.53 A9.49606 9.49606 0 1 1 18.99 405.53 A9.49606 9.49606 0 0 1 0 405.53 Z" class="st10"/></g><g id="shape134-63" transform="translate(368.504,-106.299)"><title>Kreis.134</title><path d="M0 405.53 A9.49606 9.49606 0 1 1 18.99 405.53 A9.49606 9.49606 0 0 1 0 405.53 Z" class="st10"/></g><g id="shape135-65" transform="translate(417.85,-106.299)"><title>Kreis.135</title><path d="M0 405.53 A9.49606 9.49606 0 1 1 18.99 405.53 A9.49606 9.49606 0 0 1 0 405.53 Z" class="st10"/></g><g id="shape139-67" transform="translate(356.874,-95.8842)"><title>Rechteck.139</title><path d="M0 415.02 L97.55 415.02 L97.55 376.02 L0 376.02 L0 415.02 Z" class="st12"/></g><g id="shape141-69" transform="translate(311.811,-66.063)"><title>Rechteck.141</title><rect width="164.409" height="173.366" x="0" y="241.658" class="st5"/></g><g id="shape142-71" transform="translate(54.5901,-25.4692) rotate(-55.5557)"><title>Tabelle.142</title><path d="M0 415.02 L18.27 415.02" class="st14"/></g><g id="shape143-77" transform="translate(93.4187,73.8479) rotate(-60.1949)"><title>Tabelle.143</title><path d="M0 415.02 L98.25 415.02" class="st14"/></g><g id="shape144-82" transform="translate(521.866,-240.945)"><title>Kreis.144</title><path d="M0 405.53 A9.49606 9.49606 0 1 1 18.99 405.53 A9.49606 9.49606 0 0 1 0 405.53 Z" class="st10"/></g><g id="shape145-84" transform="translate(555.024,-240.945)"><title>Kreis.145</title><path d="M0 405.53 A9.49606 9.49606 0 1 1 18.99 405.53 A9.49606 9.49606 0 0 1 0 405.53 Z" class="st10"/></g><g id="shape146-86" transform="translate(510.236,-233.858)"><title>Rechteck.146</title><path d="M0 415.02 L77.95 415.02 L77.95 381.11 L0 381.11 L0 415.02 Z" class="st12"/></g><g id="shape147-88" transform="translate(415.276,-233.858)"><title>Rechteck.147</title><path d="M0 415.02 L35.48 415.02 L35.48 379.59 L0 379.59 L0 415.02 Z" class="st12"/></g><g id="shape148-90" transform="translate(422.654,-240.945)"><title>Kreis.148</title><path d="M0 405.53 A9.49606 9.49606 0 1 1 18.99 405.53 A9.49606 9.49606 0 0 1 0 405.53 Z" class="st10"/></g><g id="shape151-92" transform="translate(538.583,-30.3465)"><title>Rechteck.151</title><desc>Merge into release/4.0.0</desc><rect width="226.286" height="28.346" x="0" y="386.677" class="st16"/><text x="6.16" y="406.25" class="st4">Merge into release/4.0.0</text></g></g></svg>