<svg xmlns="http://www.w3.org/2000/svg" xmlns:ev="http://www.w3.org/2001/xml-events" xmlns:xlink="http://www.w3.org/1999/xlink" width="982.032" height="291.465" class="st14" color-interpolation-filters="sRGB" viewBox="0 0 736.522 218.598" xml:space="preserve"><style type="text/css">.st1,.st2,.st3{fill:#ededed;stroke:none;stroke-width:2}.st2,.st3{fill:#000;stroke-width:.25}.st3{fill:#ededed}.st4{fill:#000;font-family:Montserrat;font-size:1.5em}.st5,.st6,.st7{fill:none;stroke:none;stroke-width:2}.st6,.st7{fill:#c9c9c9;stroke-width:.25}.st7{fill:#000;stroke:#c7c8c8}.st8{stroke:#000;stroke-width:2.75}.st9{fill:#3cc;stroke:none;stroke-width:2}.st10{fill:#000;stroke:#ededed;stroke-width:4.5}.st11{fill:none;stroke:#96f;stroke-dasharray:14,10;stroke-width:2}.st12,.st13{fill:#96f;stroke:none;stroke-width:2}.st13{fill:none;stroke:#3cc;stroke-dasharray:14,10}.st14{fill:none;fill-rule:evenodd;font-size:12px;overflow:visible;stroke-linecap:square;stroke-miterlimit:3}</style><g><title>Zeichenblatt-1</title><g id="shape97-1" transform="translate(2,-44.5197)"><title>Rechteck.97</title><rect width="732.522" height="172.079" x="0" y="46.52" class="st1"/></g><g id="group98-3" transform="translate(244.362,-134.575)"><title>Tabelle.98</title></g><g id="shape99-4" transform="translate(130.976,-142.654)"><title>Rechteck.99</title><rect width="538" height="2.835" x="0" y="215.764" class="st2"/></g><g id="shape103-6" transform="translate(24.6772,-134.575)"><title>Rechteck.103</title><desc>Master</desc><rect width="99.213" height="18.992" x="0" y="199.606" class="st3"/><text x="19.28" y="214.5" class="st4">Master</text></g><g id="shape104-9" transform="translate(26.0945,-120.685)"><title>Tabelle.104</title><rect width="676.898" height="46.772" x="0" y="171.827" class="st5"/></g><g id="shape105-11" transform="translate(2,-188.252)"><title>Tabelle.105</title><desc>SpongeDocs</desc><rect width="732.522" height="28.346" x="0" y="190.252" class="st6"/><text x="309.99" y="209.83" class="st4">SpongeDocs</text></g><g id="shape106-14" transform="translate(299.39,-81.0002)"><title>Rechteck.106</title><rect width="196.673" height="2.835" x="0" y="215.764" class="st7"/></g><g id="shape110-16" transform="translate(28.3465,-72.8661)"><title>Rechteck.110</title><desc>Feature/foo</desc><rect width="136.646" height="18.992" x="0" y="199.606" class="st3"/><text x="16.89" y="214.5" class="st4">Feature/foo</text></g><g id="shape111-19" transform="translate(26.0945,-59.0317)"><title>Tabelle.111</title><rect width="676.898" height="46.772" x="0" y="171.827" class="st5"/></g><g id="shape112-21" transform="translate(123.89,-144.071)"><title>Dynamischer Verbinder.112</title><path d="M0 218.6 L124.14 218.6 A28.3465 28.3465 0 0 1 152.49 246.94 L152.49 251.91 A28.3465 28.3465 -180 0 0 180.83 280.25 L372.17 280.25" class="st8"/></g><g id="shape114-24" transform="translate(2,-2)"><title>Rechteck.114</title><desc>Commits targeting 3.0.0 release</desc><rect width="295.638" height="28.346" x="0" y="190.252" class="st9"/><text x="5.46" y="209.83" class="st4">Commits targeting 3.0.0 release</text></g><g id="shape100-27" transform="translate(143.695,-134.575)"><title>Kreis.100</title><path d="M0 209.1 A9.49606 9.49606 0 1 1 18.99 209.1 A9.49606 9.49606 0 0 1 0 209.1 Z" class="st10"/></g><g id="shape117-29" transform="translate(127.559,-149.732)"><title>Rechteck.117</title><desc>3.0.0</desc><rect width="54.978" height="26.937" x="0" y="191.661" class="st5"/><text x="6.28" y="210.53" class="st4">3.0.0</text></g><g id="shape118-32" transform="translate(127.559,-134.575)"><title>Rechteck.118</title><path d="M0 218.6 L54.98 218.6 L54.98 179.6 L0 179.6 L0 218.6 Z" class="st11"/></g><g id="shape120-34" transform="translate(582.818,-150.716)"><title>Rechteck.120</title><desc>3.1.0</desc><rect width="54.978" height="26.937" x="0" y="191.661" class="st5"/><text x="9.01" y="210.53" class="st4">3.1.0</text></g><g id="shape121-37" transform="translate(582.818,-135.559)"><title>Rechteck.121</title><path d="M0 218.6 L54.98 218.6 L54.98 179.6 L0 179.6 L0 218.6 Z" class="st11"/></g><g id="shape123-39" transform="translate(496.063,-82.4175)"><title>Dynamischer Verbinder.123</title><path d="M0 218.6 L24.32 218.6 A24.3243 24.3243 -180 0 0 48.65 194.27 L48.65 185.29 A28.3465 28.3465 0 0 1 77 156.94 L172.91 156.94" class="st8"/></g><g id="shape127-42" transform="translate(306.448,-2)"><title>Rechteck.127</title><desc>Targeted API version</desc><rect width="196.673" height="28.346" x="0" y="190.252" class="st12"/><text x="6.16" y="209.83" class="st4">Targeted API version</text></g><g id="shape144-45" transform="translate(401.394,-72.8661)"><title>Kreis.144</title><path d="M0 209.1 A9.49606 9.49606 0 1 1 18.99 209.1 A9.49606 9.49606 0 0 1 0 209.1 Z" class="st10"/></g><g id="shape145-47" transform="translate(434.551,-72.8661)"><title>Kreis.145</title><path d="M0 209.1 A9.49606 9.49606 0 1 1 18.99 209.1 A9.49606 9.49606 0 0 1 0 209.1 Z" class="st10"/></g><g id="shape146-49" transform="translate(389.764,-65.7795)"><title>Rechteck.146</title><path d="M0 218.6 L77.95 218.6 L77.95 184.68 L0 184.68 L0 218.6 Z" class="st13"/></g><g id="shape119-51" transform="translate(598.954,-135.559)"><title>Kreis.119</title><path d="M0 209.1 A9.49606 9.49606 0 1 1 18.99 209.1 A9.49606 9.49606 0 0 1 0 209.1 Z" class="st10"/></g></g></svg>